<?xml version="1.0" encoding="utf-8" standalone="no"?>
<!DOCTYPE svg PUBLIC "-//W3C//DTD SVG 1.1//EN"
  "http://www.w3.org/Graphics/SVG/1.1/DTD/svg11.dtd">
<svg xmlns:xlink="http://www.w3.org/1999/xlink" width="534.132187pt" height="313.550277pt" viewBox="0 0 534.132187 313.550277" xmlns="http://www.w3.org/2000/svg" version="1.1">
 <metadata>
  <rdf:RDF xmlns:dc="http://purl.org/dc/elements/1.1/" xmlns:cc="http://creativecommons.org/ns#" xmlns:rdf="http://www.w3.org/1999/02/22-rdf-syntax-ns#">
   <cc:Work>
    <dc:type rdf:resource="http://purl.org/dc/dcmitype/StillImage"/>
    <dc:date>1980-01-01T00:00:00+00:00</dc:date>
    <dc:format>image/svg+xml</dc:format>
    <dc:creator>
     <cc:Agent>
      <dc:title>Matplotlib v3.8.2, https://matplotlib.org/</dc:title>
     </cc:Agent>
    </dc:creator>
   </cc:Work>
  </rdf:RDF>
 </metadata>
 <defs>
  <style type="text/css">*{stroke-linejoin: round; stroke-linecap: butt}</style>
 </defs>
 <g id="figure_1">
  <g id="patch_1">
   <path d="M -0 313.550277 
L 534.132187 313.550277 
L 534.132187 0 
L -0 0 
z
" style="fill: #ffffff"/>
  </g>
  <g id="axes_1">
   <g id="patch_2">
    <path d="M 42.53875 274.058402 
L 399.65875 274.058402 
L 399.65875 7.946402 
L 42.53875 7.946402 
z
" style="fill: #e5e5e5"/>
   </g>
   <g id="matplotlib.axis_1">
    <g id="xtick_1">
     <g id="line2d_1">
      <path d="M 58.771477 274.058402 
L 58.771477 7.946402 
" clip-path="url(#p455666c3fb)" style="fill: none; stroke: #ffffff; stroke-width: 0.8; stroke-linecap: square"/>
     </g>
     <g id="line2d_2">
      <defs>
       <path id="m6f0cca225b" d="M 0 0 
L 0 3.5 
" style="stroke: #555555; stroke-width: 0.8"/>
      </defs>
      <g>
       <use xlink:href="#m6f0cca225b" x="58.771477" y="274.058402" style="fill: #555555; stroke: #555555; stroke-width: 0.8"/>
      </g>
     </g>
     <g id="text_1">
      <!-- 0 -->
      <g style="fill: #555555" transform="translate(55.590227 288.65684) scale(0.1 -0.1)">
       <defs>
        <path id="DejaVuSans-30" d="M 2034 4250 
Q 1547 4250 1301 3770 
Q 1056 3291 1056 2328 
Q 1056 1369 1301 889 
Q 1547 409 2034 409 
Q 2525 409 2770 889 
Q 3016 1369 3016 2328 
Q 3016 3291 2770 3770 
Q 2525 4250 2034 4250 
z
M 2034 4750 
Q 2819 4750 3233 4129 
Q 3647 3509 3647 2328 
Q 3647 1150 3233 529 
Q 2819 -91 2034 -91 
Q 1250 -91 836 529 
Q 422 1150 422 2328 
Q 422 3509 836 4129 
Q 1250 4750 2034 4750 
z
" transform="scale(0.015625)"/>
       </defs>
       <use xlink:href="#DejaVuSans-30"/>
      </g>
     </g>
    </g>
    <g id="xtick_2">
     <g id="line2d_3">
      <path d="M 129.348552 274.058402 
L 129.348552 7.946402 
" clip-path="url(#p455666c3fb)" style="fill: none; stroke: #ffffff; stroke-width: 0.8; stroke-linecap: square"/>
     </g>
     <g id="line2d_4">
      <g>
       <use xlink:href="#m6f0cca225b" x="129.348552" y="274.058402" style="fill: #555555; stroke: #555555; stroke-width: 0.8"/>
      </g>
     </g>
     <g id="text_2">
      <!-- 5 -->
      <g style="fill: #555555" transform="translate(126.167302 288.65684) scale(0.1 -0.1)">
       <defs>
        <path id="DejaVuSans-35" d="M 691 4666 
L 3169 4666 
L 3169 4134 
L 1269 4134 
L 1269 2991 
Q 1406 3038 1543 3061 
Q 1681 3084 1819 3084 
Q 2600 3084 3056 2656 
Q 3513 2228 3513 1497 
Q 3513 744 3044 326 
Q 2575 -91 1722 -91 
Q 1428 -91 1123 -41 
Q 819 9 494 109 
L 494 744 
Q 775 591 1075 516 
Q 1375 441 1709 441 
Q 2250 441 2565 725 
Q 2881 1009 2881 1497 
Q 2881 1984 2565 2268 
Q 2250 2553 1709 2553 
Q 1456 2553 1204 2497 
Q 953 2441 691 2322 
L 691 4666 
z
" transform="scale(0.015625)"/>
       </defs>
       <use xlink:href="#DejaVuSans-35"/>
      </g>
     </g>
    </g>
    <g id="xtick_3">
     <g id="line2d_5">
      <path d="M 199.925627 274.058402 
L 199.925627 7.946402 
" clip-path="url(#p455666c3fb)" style="fill: none; stroke: #ffffff; stroke-width: 0.8; stroke-linecap: square"/>
     </g>
     <g id="line2d_6">
      <g>
       <use xlink:href="#m6f0cca225b" x="199.925627" y="274.058402" style="fill: #555555; stroke: #555555; stroke-width: 0.8"/>
      </g>
     </g>
     <g id="text_3">
      <!-- 10 -->
      <g style="fill: #555555" transform="translate(193.563127 288.65684) scale(0.1 -0.1)">
       <defs>
        <path id="DejaVuSans-31" d="M 794 531 
L 1825 531 
L 1825 4091 
L 703 3866 
L 703 4441 
L 1819 4666 
L 2450 4666 
L 2450 531 
L 3481 531 
L 3481 0 
L 794 0 
L 794 531 
z
" transform="scale(0.015625)"/>
       </defs>
       <use xlink:href="#DejaVuSans-31"/>
       <use xlink:href="#DejaVuSans-30" x="63.623047"/>
      </g>
     </g>
    </g>
    <g id="xtick_4">
     <g id="line2d_7">
      <path d="M 270.502703 274.058402 
L 270.502703 7.946402 
" clip-path="url(#p455666c3fb)" style="fill: none; stroke: #ffffff; stroke-width: 0.8; stroke-linecap: square"/>
     </g>
     <g id="line2d_8">
      <g>
       <use xlink:href="#m6f0cca225b" x="270.502703" y="274.058402" style="fill: #555555; stroke: #555555; stroke-width: 0.8"/>
      </g>
     </g>
     <g id="text_4">
      <!-- 15 -->
      <g style="fill: #555555" transform="translate(264.140203 288.65684) scale(0.1 -0.1)">
       <use xlink:href="#DejaVuSans-31"/>
       <use xlink:href="#DejaVuSans-35" x="63.623047"/>
      </g>
     </g>
    </g>
    <g id="xtick_5">
     <g id="line2d_9">
      <path d="M 341.079778 274.058402 
L 341.079778 7.946402 
" clip-path="url(#p455666c3fb)" style="fill: none; stroke: #ffffff; stroke-width: 0.8; stroke-linecap: square"/>
     </g>
     <g id="line2d_10">
      <g>
       <use xlink:href="#m6f0cca225b" x="341.079778" y="274.058402" style="fill: #555555; stroke: #555555; stroke-width: 0.8"/>
      </g>
     </g>
     <g id="text_5">
      <!-- 20 -->
      <g style="fill: #555555" transform="translate(334.717278 288.65684) scale(0.1 -0.1)">
       <defs>
        <path id="DejaVuSans-32" d="M 1228 531 
L 3431 531 
L 3431 0 
L 469 0 
L 469 531 
Q 828 903 1448 1529 
Q 2069 2156 2228 2338 
Q 2531 2678 2651 2914 
Q 2772 3150 2772 3378 
Q 2772 3750 2511 3984 
Q 2250 4219 1831 4219 
Q 1534 4219 1204 4116 
Q 875 4013 500 3803 
L 500 4441 
Q 881 4594 1212 4672 
Q 1544 4750 1819 4750 
Q 2544 4750 2975 4387 
Q 3406 4025 3406 3419 
Q 3406 3131 3298 2873 
Q 3191 2616 2906 2266 
Q 2828 2175 2409 1742 
Q 1991 1309 1228 531 
z
" transform="scale(0.015625)"/>
       </defs>
       <use xlink:href="#DejaVuSans-32"/>
       <use xlink:href="#DejaVuSans-30" x="63.623047"/>
      </g>
     </g>
    </g>
    <g id="text_6">
     <!-- Time of Day [h] -->
     <g style="fill: #555555" transform="translate(174.581875 303.854652) scale(0.12 -0.12)">
      <defs>
       <path id="DejaVuSans-54" d="M -19 4666 
L 3928 4666 
L 3928 4134 
L 2272 4134 
L 2272 0 
L 1638 0 
L 1638 4134 
L -19 4134 
L -19 4666 
z
" transform="scale(0.015625)"/>
       <path id="DejaVuSans-69" d="M 603 3500 
L 1178 3500 
L 1178 0 
L 603 0 
L 603 3500 
z
M 603 4863 
L 1178 4863 
L 1178 4134 
L 603 4134 
L 603 4863 
z
" transform="scale(0.015625)"/>
       <path id="DejaVuSans-6d" d="M 3328 2828 
Q 3544 3216 3844 3400 
Q 4144 3584 4550 3584 
Q 5097 3584 5394 3201 
Q 5691 2819 5691 2113 
L 5691 0 
L 5113 0 
L 5113 2094 
Q 5113 2597 4934 2840 
Q 4756 3084 4391 3084 
Q 3944 3084 3684 2787 
Q 3425 2491 3425 1978 
L 3425 0 
L 2847 0 
L 2847 2094 
Q 2847 2600 2669 2842 
Q 2491 3084 2119 3084 
Q 1678 3084 1418 2786 
Q 1159 2488 1159 1978 
L 1159 0 
L 581 0 
L 581 3500 
L 1159 3500 
L 1159 2956 
Q 1356 3278 1631 3431 
Q 1906 3584 2284 3584 
Q 2666 3584 2933 3390 
Q 3200 3197 3328 2828 
z
" transform="scale(0.015625)"/>
       <path id="DejaVuSans-65" d="M 3597 1894 
L 3597 1613 
L 953 1613 
Q 991 1019 1311 708 
Q 1631 397 2203 397 
Q 2534 397 2845 478 
Q 3156 559 3463 722 
L 3463 178 
Q 3153 47 2828 -22 
Q 2503 -91 2169 -91 
Q 1331 -91 842 396 
Q 353 884 353 1716 
Q 353 2575 817 3079 
Q 1281 3584 2069 3584 
Q 2775 3584 3186 3129 
Q 3597 2675 3597 1894 
z
M 3022 2063 
Q 3016 2534 2758 2815 
Q 2500 3097 2075 3097 
Q 1594 3097 1305 2825 
Q 1016 2553 972 2059 
L 3022 2063 
z
" transform="scale(0.015625)"/>
       <path id="DejaVuSans-20" transform="scale(0.015625)"/>
       <path id="DejaVuSans-6f" d="M 1959 3097 
Q 1497 3097 1228 2736 
Q 959 2375 959 1747 
Q 959 1119 1226 758 
Q 1494 397 1959 397 
Q 2419 397 2687 759 
Q 2956 1122 2956 1747 
Q 2956 2369 2687 2733 
Q 2419 3097 1959 3097 
z
M 1959 3584 
Q 2709 3584 3137 3096 
Q 3566 2609 3566 1747 
Q 3566 888 3137 398 
Q 2709 -91 1959 -91 
Q 1206 -91 779 398 
Q 353 888 353 1747 
Q 353 2609 779 3096 
Q 1206 3584 1959 3584 
z
" transform="scale(0.015625)"/>
       <path id="DejaVuSans-66" d="M 2375 4863 
L 2375 4384 
L 1825 4384 
Q 1516 4384 1395 4259 
Q 1275 4134 1275 3809 
L 1275 3500 
L 2222 3500 
L 2222 3053 
L 1275 3053 
L 1275 0 
L 697 0 
L 697 3053 
L 147 3053 
L 147 3500 
L 697 3500 
L 697 3744 
Q 697 4328 969 4595 
Q 1241 4863 1831 4863 
L 2375 4863 
z
" transform="scale(0.015625)"/>
       <path id="DejaVuSans-44" d="M 1259 4147 
L 1259 519 
L 2022 519 
Q 2988 519 3436 956 
Q 3884 1394 3884 2338 
Q 3884 3275 3436 3711 
Q 2988 4147 2022 4147 
L 1259 4147 
z
M 628 4666 
L 1925 4666 
Q 3281 4666 3915 4102 
Q 4550 3538 4550 2338 
Q 4550 1131 3912 565 
Q 3275 0 1925 0 
L 628 0 
L 628 4666 
z
" transform="scale(0.015625)"/>
       <path id="DejaVuSans-61" d="M 2194 1759 
Q 1497 1759 1228 1600 
Q 959 1441 959 1056 
Q 959 750 1161 570 
Q 1363 391 1709 391 
Q 2188 391 2477 730 
Q 2766 1069 2766 1631 
L 2766 1759 
L 2194 1759 
z
M 3341 1997 
L 3341 0 
L 2766 0 
L 2766 531 
Q 2569 213 2275 61 
Q 1981 -91 1556 -91 
Q 1019 -91 701 211 
Q 384 513 384 1019 
Q 384 1609 779 1909 
Q 1175 2209 1959 2209 
L 2766 2209 
L 2766 2266 
Q 2766 2663 2505 2880 
Q 2244 3097 1772 3097 
Q 1472 3097 1187 3025 
Q 903 2953 641 2809 
L 641 3341 
Q 956 3463 1253 3523 
Q 1550 3584 1831 3584 
Q 2591 3584 2966 3190 
Q 3341 2797 3341 1997 
z
" transform="scale(0.015625)"/>
       <path id="DejaVuSans-79" d="M 2059 -325 
Q 1816 -950 1584 -1140 
Q 1353 -1331 966 -1331 
L 506 -1331 
L 506 -850 
L 844 -850 
Q 1081 -850 1212 -737 
Q 1344 -625 1503 -206 
L 1606 56 
L 191 3500 
L 800 3500 
L 1894 763 
L 2988 3500 
L 3597 3500 
L 2059 -325 
z
" transform="scale(0.015625)"/>
       <path id="DejaVuSans-5b" d="M 550 4863 
L 1875 4863 
L 1875 4416 
L 1125 4416 
L 1125 -397 
L 1875 -397 
L 1875 -844 
L 550 -844 
L 550 4863 
z
" transform="scale(0.015625)"/>
       <path id="DejaVuSans-68" d="M 3513 2113 
L 3513 0 
L 2938 0 
L 2938 2094 
Q 2938 2591 2744 2837 
Q 2550 3084 2163 3084 
Q 1697 3084 1428 2787 
Q 1159 2491 1159 1978 
L 1159 0 
L 581 0 
L 581 4863 
L 1159 4863 
L 1159 2956 
Q 1366 3272 1645 3428 
Q 1925 3584 2291 3584 
Q 2894 3584 3203 3211 
Q 3513 2838 3513 2113 
z
" transform="scale(0.015625)"/>
       <path id="DejaVuSans-5d" d="M 1947 4863 
L 1947 -844 
L 622 -844 
L 622 -397 
L 1369 -397 
L 1369 4416 
L 622 4416 
L 622 4863 
L 1947 4863 
z
" transform="scale(0.015625)"/>
      </defs>
      <use xlink:href="#DejaVuSans-54"/>
      <use xlink:href="#DejaVuSans-69" x="57.958984"/>
      <use xlink:href="#DejaVuSans-6d" x="85.742188"/>
      <use xlink:href="#DejaVuSans-65" x="183.154297"/>
      <use xlink:href="#DejaVuSans-20" x="244.677734"/>
      <use xlink:href="#DejaVuSans-6f" x="276.464844"/>
      <use xlink:href="#DejaVuSans-66" x="337.646484"/>
      <use xlink:href="#DejaVuSans-20" x="372.851562"/>
      <use xlink:href="#DejaVuSans-44" x="404.638672"/>
      <use xlink:href="#DejaVuSans-61" x="481.640625"/>
      <use xlink:href="#DejaVuSans-79" x="542.919922"/>
      <use xlink:href="#DejaVuSans-20" x="602.099609"/>
      <use xlink:href="#DejaVuSans-5b" x="633.886719"/>
      <use xlink:href="#DejaVuSans-68" x="672.900391"/>
      <use xlink:href="#DejaVuSans-5d" x="736.279297"/>
     </g>
    </g>
   </g>
   <g id="matplotlib.axis_2">
    <g id="ytick_1">
     <g id="line2d_11">
      <path d="M 42.53875 261.962402 
L 399.65875 261.962402 
" clip-path="url(#p455666c3fb)" style="fill: none; stroke: #ffffff; stroke-width: 0.8; stroke-linecap: square"/>
     </g>
     <g id="line2d_12">
      <defs>
       <path id="m9b8e8a5e78" d="M 0 0 
L -3.5 0 
" style="stroke: #555555; stroke-width: 0.8"/>
      </defs>
      <g>
       <use xlink:href="#m9b8e8a5e78" x="42.53875" y="261.962402" style="fill: #555555; stroke: #555555; stroke-width: 0.8"/>
      </g>
     </g>
     <g id="text_7">
      <!-- 0 -->
      <g style="fill: #555555" transform="translate(29.17625 265.761621) scale(0.1 -0.1)">
       <use xlink:href="#DejaVuSans-30"/>
      </g>
     </g>
    </g>
    <g id="ytick_2">
     <g id="line2d_13">
      <path d="M 42.53875 211.769766 
L 399.65875 211.769766 
" clip-path="url(#p455666c3fb)" style="fill: none; stroke: #ffffff; stroke-width: 0.8; stroke-linecap: square"/>
     </g>
     <g id="line2d_14">
      <g>
       <use xlink:href="#m9b8e8a5e78" x="42.53875" y="211.769766" style="fill: #555555; stroke: #555555; stroke-width: 0.8"/>
      </g>
     </g>
     <g id="text_8">
      <!-- 5 -->
      <g style="fill: #555555" transform="translate(29.17625 215.568984) scale(0.1 -0.1)">
       <use xlink:href="#DejaVuSans-35"/>
      </g>
     </g>
    </g>
    <g id="ytick_3">
     <g id="line2d_15">
      <path d="M 42.53875 161.577129 
L 399.65875 161.577129 
" clip-path="url(#p455666c3fb)" style="fill: none; stroke: #ffffff; stroke-width: 0.8; stroke-linecap: square"/>
     </g>
     <g id="line2d_16">
      <g>
       <use xlink:href="#m9b8e8a5e78" x="42.53875" y="161.577129" style="fill: #555555; stroke: #555555; stroke-width: 0.8"/>
      </g>
     </g>
     <g id="text_9">
      <!-- 10 -->
      <g style="fill: #555555" transform="translate(22.81375 165.376348) scale(0.1 -0.1)">
       <use xlink:href="#DejaVuSans-31"/>
       <use xlink:href="#DejaVuSans-30" x="63.623047"/>
      </g>
     </g>
    </g>
    <g id="ytick_4">
     <g id="line2d_17">
      <path d="M 42.53875 111.384492 
L 399.65875 111.384492 
" clip-path="url(#p455666c3fb)" style="fill: none; stroke: #ffffff; stroke-width: 0.8; stroke-linecap: square"/>
     </g>
     <g id="line2d_18">
      <g>
       <use xlink:href="#m9b8e8a5e78" x="42.53875" y="111.384492" style="fill: #555555; stroke: #555555; stroke-width: 0.8"/>
      </g>
     </g>
     <g id="text_10">
      <!-- 15 -->
      <g style="fill: #555555" transform="translate(22.81375 115.183711) scale(0.1 -0.1)">
       <use xlink:href="#DejaVuSans-31"/>
       <use xlink:href="#DejaVuSans-35" x="63.623047"/>
      </g>
     </g>
    </g>
    <g id="ytick_5">
     <g id="line2d_19">
      <path d="M 42.53875 61.191855 
L 399.65875 61.191855 
" clip-path="url(#p455666c3fb)" style="fill: none; stroke: #ffffff; stroke-width: 0.8; stroke-linecap: square"/>
     </g>
     <g id="line2d_20">
      <g>
       <use xlink:href="#m9b8e8a5e78" x="42.53875" y="61.191855" style="fill: #555555; stroke: #555555; stroke-width: 0.8"/>
      </g>
     </g>
     <g id="text_11">
      <!-- 20 -->
      <g style="fill: #555555" transform="translate(22.81375 64.991074) scale(0.1 -0.1)">
       <use xlink:href="#DejaVuSans-32"/>
       <use xlink:href="#DejaVuSans-30" x="63.623047"/>
      </g>
     </g>
    </g>
    <g id="ytick_6">
     <g id="line2d_21">
      <path d="M 42.53875 10.999219 
L 399.65875 10.999219 
" clip-path="url(#p455666c3fb)" style="fill: none; stroke: #ffffff; stroke-width: 0.8; stroke-linecap: square"/>
     </g>
     <g id="line2d_22">
      <g>
       <use xlink:href="#m9b8e8a5e78" x="42.53875" y="10.999219" style="fill: #555555; stroke: #555555; stroke-width: 0.8"/>
      </g>
     </g>
     <g id="text_12">
      <!-- 25 -->
      <g style="fill: #555555" transform="translate(22.81375 14.798437) scale(0.1 -0.1)">
       <use xlink:href="#DejaVuSans-32"/>
       <use xlink:href="#DejaVuSans-35" x="63.623047"/>
      </g>
     </g>
    </g>
    <g id="text_13">
     <!-- Travel Time Difference [min] -->
     <g style="fill: #555555" transform="translate(16.318125 226.25209) rotate(-90) scale(0.12 -0.12)">
      <defs>
       <path id="DejaVuSans-72" d="M 2631 2963 
Q 2534 3019 2420 3045 
Q 2306 3072 2169 3072 
Q 1681 3072 1420 2755 
Q 1159 2438 1159 1844 
L 1159 0 
L 581 0 
L 581 3500 
L 1159 3500 
L 1159 2956 
Q 1341 3275 1631 3429 
Q 1922 3584 2338 3584 
Q 2397 3584 2469 3576 
Q 2541 3569 2628 3553 
L 2631 2963 
z
" transform="scale(0.015625)"/>
       <path id="DejaVuSans-76" d="M 191 3500 
L 800 3500 
L 1894 563 
L 2988 3500 
L 3597 3500 
L 2284 0 
L 1503 0 
L 191 3500 
z
" transform="scale(0.015625)"/>
       <path id="DejaVuSans-6c" d="M 603 4863 
L 1178 4863 
L 1178 0 
L 603 0 
L 603 4863 
z
" transform="scale(0.015625)"/>
       <path id="DejaVuSans-6e" d="M 3513 2113 
L 3513 0 
L 2938 0 
L 2938 2094 
Q 2938 2591 2744 2837 
Q 2550 3084 2163 3084 
Q 1697 3084 1428 2787 
Q 1159 2491 1159 1978 
L 1159 0 
L 581 0 
L 581 3500 
L 1159 3500 
L 1159 2956 
Q 1366 3272 1645 3428 
Q 1925 3584 2291 3584 
Q 2894 3584 3203 3211 
Q 3513 2838 3513 2113 
z
" transform="scale(0.015625)"/>
       <path id="DejaVuSans-63" d="M 3122 3366 
L 3122 2828 
Q 2878 2963 2633 3030 
Q 2388 3097 2138 3097 
Q 1578 3097 1268 2742 
Q 959 2388 959 1747 
Q 959 1106 1268 751 
Q 1578 397 2138 397 
Q 2388 397 2633 464 
Q 2878 531 3122 666 
L 3122 134 
Q 2881 22 2623 -34 
Q 2366 -91 2075 -91 
Q 1284 -91 818 406 
Q 353 903 353 1747 
Q 353 2603 823 3093 
Q 1294 3584 2113 3584 
Q 2378 3584 2631 3529 
Q 2884 3475 3122 3366 
z
" transform="scale(0.015625)"/>
      </defs>
      <use xlink:href="#DejaVuSans-54"/>
      <use xlink:href="#DejaVuSans-72" x="46.333984"/>
      <use xlink:href="#DejaVuSans-61" x="87.447266"/>
      <use xlink:href="#DejaVuSans-76" x="148.726562"/>
      <use xlink:href="#DejaVuSans-65" x="207.90625"/>
      <use xlink:href="#DejaVuSans-6c" x="269.429688"/>
      <use xlink:href="#DejaVuSans-20" x="297.212891"/>
      <use xlink:href="#DejaVuSans-54" x="329"/>
      <use xlink:href="#DejaVuSans-69" x="386.958984"/>
      <use xlink:href="#DejaVuSans-6d" x="414.742188"/>
      <use xlink:href="#DejaVuSans-65" x="512.154297"/>
      <use xlink:href="#DejaVuSans-20" x="573.677734"/>
      <use xlink:href="#DejaVuSans-44" x="605.464844"/>
      <use xlink:href="#DejaVuSans-69" x="682.466797"/>
      <use xlink:href="#DejaVuSans-66" x="710.25"/>
      <use xlink:href="#DejaVuSans-66" x="745.455078"/>
      <use xlink:href="#DejaVuSans-65" x="780.660156"/>
      <use xlink:href="#DejaVuSans-72" x="842.183594"/>
      <use xlink:href="#DejaVuSans-65" x="881.046875"/>
      <use xlink:href="#DejaVuSans-6e" x="942.570312"/>
      <use xlink:href="#DejaVuSans-63" x="1005.949219"/>
      <use xlink:href="#DejaVuSans-65" x="1060.929688"/>
      <use xlink:href="#DejaVuSans-20" x="1122.453125"/>
      <use xlink:href="#DejaVuSans-5b" x="1154.240234"/>
      <use xlink:href="#DejaVuSans-6d" x="1193.253906"/>
      <use xlink:href="#DejaVuSans-69" x="1290.666016"/>
      <use xlink:href="#DejaVuSans-6e" x="1318.449219"/>
      <use xlink:href="#DejaVuSans-5d" x="1381.828125"/>
     </g>
    </g>
   </g>
   <g id="line2d_23">
    <path d="M 58.771477 224.033167 
L 72.886892 259.803656 
L 87.002307 257.363824 
L 101.117722 166.134656 
L 115.233137 126.736573 
L 129.348552 119.554253 
L 143.463967 124.657025 
L 157.579382 125.971268 
L 171.694797 125.370482 
L 185.810212 120.576304 
L 199.925627 115.985972 
L 214.041042 119.237066 
L 228.156458 116.746499 
L 242.271873 118.29668 
L 256.387288 117.909177 
L 270.502703 120.675871 
L 284.618118 125.6968 
L 298.733533 125.574336 
L 312.848948 125.6974 
L 326.964363 121.727517 
L 341.079778 114.492508 
L 355.195193 115.151391 
L 369.310608 111.09998 
L 383.426023 111.091523 
" clip-path="url(#p455666c3fb)" style="fill: none; stroke: #e24a33; stroke-width: 1.5; stroke-linecap: square"/>
   </g>
   <g id="line2d_24">
    <path d="M 58.771477 227.706853 
L 72.886892 243.42431 
L 87.002307 260.466377 
L 101.117722 147.438459 
L 115.233137 106.173454 
L 129.348552 103.179079 
L 143.463967 106.750586 
L 157.579382 118.548755 
L 171.694797 123.050851 
L 185.810212 117.750079 
L 199.925627 116.533782 
L 214.041042 120.063656 
L 228.156458 123.49974 
L 242.271873 120.476171 
L 256.387288 118.831195 
L 270.502703 117.9241 
L 284.618118 121.742378 
L 298.733533 114.727168 
L 312.848948 124.630834 
L 326.964363 122.673652 
L 341.079778 103.182579 
L 355.195193 95.652752 
L 369.310608 94.065251 
L 383.426023 77.264516 
" clip-path="url(#p455666c3fb)" style="fill: none; stroke: #348abd; stroke-width: 1.5; stroke-linecap: square"/>
   </g>
   <g id="line2d_25">
    <path d="M 58.771477 221.37722 
L 72.886892 245.674797 
L 87.002307 260.879288 
L 101.117722 147.799312 
L 115.233137 110.724805 
L 129.348552 110.234408 
L 143.463967 113.749413 
L 157.579382 123.743182 
L 171.694797 129.142084 
L 185.810212 124.819957 
L 199.925627 121.904829 
L 214.041042 125.920625 
L 228.156458 127.732498 
L 242.271873 126.372038 
L 256.387288 125.229861 
L 270.502703 125.251799 
L 284.618118 127.143575 
L 298.733533 124.095822 
L 312.848948 127.860143 
L 326.964363 126.443207 
L 341.079778 106.445439 
L 355.195193 99.767375 
L 369.310608 94.149579 
L 383.426023 95.136697 
" clip-path="url(#p455666c3fb)" style="fill: none; stroke: #988ed5; stroke-width: 1.5; stroke-linecap: square"/>
   </g>
   <g id="line2d_26">
    <path d="M 58.771477 250.07618 
L 72.886892 261.962402 
L 87.002307 257.45938 
L 101.117722 196.364598 
L 115.233137 101.788522 
L 129.348552 101.380894 
L 143.463967 87.994641 
L 157.579382 115.800061 
L 171.694797 127.566278 
L 185.810212 110.684952 
L 199.925627 114.89462 
L 214.041042 111.654977 
L 228.156458 108.069873 
L 242.271873 119.419605 
L 256.387288 116.08113 
L 270.502703 119.09014 
L 284.618118 121.091345 
L 298.733533 122.985409 
L 312.848948 120.489223 
L 326.964363 126.505151 
L 341.079778 99.246441 
L 355.195193 114.476296 
L 369.310608 92.354054 
L 383.426023 91.436657 
" clip-path="url(#p455666c3fb)" style="fill: none; stroke: #777777; stroke-width: 1.5; stroke-linecap: square"/>
   </g>
   <g id="line2d_27">
    <path d="M 58.771477 261.75024 
L 72.886892 261.962402 
L 87.002307 251.509466 
L 101.117722 213.105638 
L 115.233137 53.9323 
L 129.348552 100.973863 
L 143.463967 81.628535 
L 157.579382 104.376163 
L 171.694797 113.166372 
L 185.810212 107.098863 
L 199.925627 110.6069 
L 214.041042 108.745585 
L 228.156458 105.887087 
L 242.271873 106.681087 
L 256.387288 107.029977 
L 270.502703 109.130158 
L 284.618118 109.257652 
L 298.733533 111.075985 
L 312.848948 110.312328 
L 326.964363 110.089575 
L 341.079778 100.521831 
L 355.195193 79.244055 
L 369.310608 76.202694 
L 383.426023 69.547255 
" clip-path="url(#p455666c3fb)" style="fill: none; stroke: #fbc15e; stroke-width: 1.5; stroke-linecap: square"/>
   </g>
   <g id="line2d_28">
    <path d="M 58.771477 242.479741 
L 72.886892 261.500208 
L 87.002307 249.905766 
L 101.117722 149.535501 
L 115.233137 80.52772 
L 129.348552 110.812094 
L 143.463967 116.614927 
L 157.579382 132.905821 
L 171.694797 130.897944 
L 185.810212 128.394297 
L 199.925627 127.697663 
L 214.041042 130.29985 
L 228.156458 129.633536 
L 242.271873 127.544327 
L 256.387288 129.606934 
L 270.502703 131.034984 
L 284.618118 135.04182 
L 298.733533 130.727986 
L 312.848948 136.565542 
L 326.964363 131.148917 
L 341.079778 97.580614 
L 355.195193 89.258551 
L 369.310608 98.57812 
L 383.426023 87.429239 
" clip-path="url(#p455666c3fb)" style="fill: none; stroke: #8eba42; stroke-width: 1.5; stroke-linecap: square"/>
   </g>
   <g id="line2d_29">
    <path d="M 58.771477 230.972828 
L 72.886892 261.484978 
L 87.002307 259.356235 
L 101.117722 170.64568 
L 115.233137 96.085658 
L 129.348552 101.137906 
L 143.463967 111.024531 
L 157.579382 118.89985 
L 171.694797 107.26798 
L 185.810212 109.343947 
L 199.925627 111.923383 
L 214.041042 115.112146 
L 228.156458 115.941332 
L 242.271873 110.797288 
L 256.387288 115.994536 
L 270.502703 114.763645 
L 284.618118 114.263876 
L 298.733533 113.318505 
L 312.848948 113.696476 
L 326.964363 121.033015 
L 341.079778 95.8137 
L 355.195193 96.414394 
L 369.310608 89.256394 
L 383.426023 84.711864 
" clip-path="url(#p455666c3fb)" style="fill: none; stroke: #ffb5b8; stroke-width: 1.5; stroke-linecap: square"/>
   </g>
   <g id="line2d_30">
    <path d="M 58.771477 226.252471 
L 72.886892 254.17715 
L 87.002307 256.302795 
L 101.117722 150.529558 
L 115.233137 121.330735 
L 129.348552 107.247328 
L 143.463967 113.06846 
L 157.579382 125.647724 
L 171.694797 125.071847 
L 185.810212 122.624456 
L 199.925627 118.357964 
L 214.041042 124.082437 
L 228.156458 120.936192 
L 242.271873 122.39251 
L 256.387288 120.903645 
L 270.502703 125.914865 
L 284.618118 127.570499 
L 298.733533 124.511254 
L 312.848948 126.514392 
L 326.964363 128.009434 
L 341.079778 102.041801 
L 355.195193 93.974391 
L 369.310608 100.861841 
L 383.426023 99.966969 
" clip-path="url(#p455666c3fb)" style="fill: none; stroke: #e24a33; stroke-width: 1.5; stroke-linecap: square"/>
   </g>
   <g id="line2d_31">
    <path d="M 58.771477 236.438375 
L 72.886892 237.641799 
L 87.002307 258.331196 
L 101.117722 142.581885 
L 115.233137 95.708908 
L 129.348552 108.912042 
L 143.463967 109.879201 
L 157.579382 116.224334 
L 171.694797 120.556451 
L 185.810212 116.635671 
L 199.925627 117.590772 
L 214.041042 118.010447 
L 228.156458 121.183284 
L 242.271873 112.429463 
L 256.387288 118.441014 
L 270.502703 119.137064 
L 284.618118 117.899226 
L 298.733533 115.699478 
L 312.848948 127.385951 
L 326.964363 123.264217 
L 341.079778 105.736491 
L 355.195193 94.513686 
L 369.310608 102.574927 
L 383.426023 75.509738 
" clip-path="url(#p455666c3fb)" style="fill: none; stroke: #348abd; stroke-width: 1.5; stroke-linecap: square"/>
   </g>
   <g id="line2d_32">
    <path d="M 58.771477 225.86915 
L 72.886892 261.507822 
L 87.002307 255.662245 
L 101.117722 167.935148 
L 115.233137 70.748298 
L 129.348552 105.903129 
L 143.463967 107.4718 
L 157.579382 118.584684 
L 171.694797 124.928043 
L 185.810212 116.959243 
L 199.925627 116.402014 
L 214.041042 121.106129 
L 228.156458 124.024653 
L 242.271873 120.714895 
L 256.387288 115.799564 
L 270.502703 122.057598 
L 284.618118 122.431481 
L 298.733533 118.479889 
L 312.848948 119.485737 
L 326.964363 125.003949 
L 341.079778 109.732808 
L 355.195193 107.244505 
L 369.310608 94.987959 
L 383.426023 86.362618 
" clip-path="url(#p455666c3fb)" style="fill: none; stroke: #988ed5; stroke-width: 1.5; stroke-linecap: square"/>
   </g>
   <g id="line2d_33">
    <path d="M 58.771477 253.862011 
L 72.886892 261.962402 
L 87.002307 259.637801 
L 101.117722 233.582654 
L 115.233137 33.763187 
L 129.348552 90.186489 
L 143.463967 119.498802 
L 157.579382 120.078639 
L 171.694797 112.122787 
L 185.810212 112.560296 
L 199.925627 112.434177 
L 214.041042 110.272332 
L 228.156458 109.950567 
L 242.271873 114.52626 
L 256.387288 115.965845 
L 270.502703 111.344774 
L 284.618118 107.321369 
L 298.733533 111.820148 
L 312.848948 114.354515 
L 326.964363 110.966915 
L 341.079778 117.634826 
L 355.195193 104.634566 
L 369.310608 93.583581 
L 383.426023 75.538908 
" clip-path="url(#p455666c3fb)" style="fill: none; stroke: #777777; stroke-width: 1.5; stroke-linecap: square"/>
   </g>
   <g id="line2d_34">
    <path d="M 58.771477 215.76769 
L 72.886892 260.613213 
L 87.002307 261.59895 
L 101.117722 156.029121 
L 115.233137 119.937304 
L 129.348552 107.846527 
L 143.463967 111.502292 
L 157.579382 118.357226 
L 171.694797 124.592024 
L 185.810212 118.98674 
L 199.925627 119.28572 
L 214.041042 124.846127 
L 228.156458 124.412441 
L 242.271873 122.481659 
L 256.387288 119.561421 
L 270.502703 121.62954 
L 284.618118 123.932023 
L 298.733533 117.784631 
L 312.848948 122.268412 
L 326.964363 134.041869 
L 341.079778 114.188114 
L 355.195193 110.13653 
L 369.310608 94.635181 
L 383.426023 80.690394 
" clip-path="url(#p455666c3fb)" style="fill: none; stroke: #fbc15e; stroke-width: 1.5; stroke-linecap: square"/>
   </g>
   <g id="line2d_35">
    <path d="M 58.771477 214.280404 
L 72.886892 252.661887 
L 87.002307 261.787813 
L 101.117722 149.713598 
L 115.233137 121.024171 
L 129.348552 110.635276 
L 143.463967 113.286765 
L 157.579382 119.691114 
L 171.694797 127.904517 
L 185.810212 121.63116 
L 199.925627 121.33195 
L 214.041042 124.894987 
L 228.156458 127.078461 
L 242.271873 126.727528 
L 256.387288 123.881729 
L 270.502703 122.906452 
L 284.618118 125.461331 
L 298.733533 121.686794 
L 312.848948 122.527825 
L 326.964363 132.564878 
L 341.079778 114.138636 
L 355.195193 111.635317 
L 369.310608 94.329498 
L 383.426023 93.167009 
" clip-path="url(#p455666c3fb)" style="fill: none; stroke: #8eba42; stroke-width: 1.5; stroke-linecap: square"/>
   </g>
   <g id="line2d_36">
    <path d="M 58.771477 218.066937 
L 72.886892 232.401329 
L 87.002307 253.151446 
L 101.117722 77.644459 
L 115.233137 101.285672 
L 129.348552 103.832523 
L 143.463967 105.848285 
L 157.579382 117.864431 
L 171.694797 119.584079 
L 185.810212 113.225318 
L 199.925627 112.345144 
L 214.041042 115.147609 
L 228.156458 116.960739 
L 242.271873 113.25013 
L 256.387288 112.662647 
L 270.502703 114.701839 
L 284.618118 115.639984 
L 298.733533 112.516319 
L 312.848948 124.14803 
L 326.964363 100.998553 
L 341.079778 77.642387 
L 355.195193 65.153543 
L 369.310608 79.53464 
L 383.426023 65.995839 
" clip-path="url(#p455666c3fb)" style="fill: none; stroke: #ffb5b8; stroke-width: 1.5; stroke-linecap: square"/>
   </g>
   <g id="line2d_37">
    <path d="M 58.771477 258.933825 
L 72.886892 261.962402 
L 87.002307 261.364161 
L 101.117722 246.438265 
L 115.233137 20.042402 
L 129.348552 103.657232 
L 143.463967 117.065687 
L 157.579382 118.312118 
L 171.694797 113.686024 
L 185.810212 117.347081 
L 199.925627 117.702009 
L 214.041042 114.725889 
L 228.156458 113.752084 
L 242.271873 118.523222 
L 256.387288 118.875907 
L 270.502703 117.651197 
L 284.618118 114.558456 
L 298.733533 114.959244 
L 312.848948 118.441783 
L 326.964363 121.554694 
L 341.079778 115.505788 
L 355.195193 108.304525 
L 369.310608 105.654971 
L 383.426023 76.943894 
" clip-path="url(#p455666c3fb)" style="fill: none; stroke: #e24a33; stroke-width: 1.5; stroke-linecap: square"/>
   </g>
   <g id="patch_3">
    <path d="M 42.53875 274.058402 
L 42.53875 7.946402 
" style="fill: none; stroke: #ffffff; stroke-linejoin: miter; stroke-linecap: square"/>
   </g>
   <g id="patch_4">
    <path d="M 399.65875 274.058402 
L 399.65875 7.946402 
" style="fill: none; stroke: #ffffff; stroke-linejoin: miter; stroke-linecap: square"/>
   </g>
   <g id="patch_5">
    <path d="M 42.53875 274.058402 
L 399.65875 274.058402 
" style="fill: none; stroke: #ffffff; stroke-linejoin: miter; stroke-linecap: square"/>
   </g>
   <g id="patch_6">
    <path d="M 42.53875 7.946402 
L 399.65875 7.946402 
" style="fill: none; stroke: #ffffff; stroke-linejoin: miter; stroke-linecap: square"/>
   </g>
   <g id="legend_1">
    <g id="patch_7">
     <path d="M 406.65875 252.58834 
L 524.932188 252.58834 
Q 526.932188 252.58834 526.932188 250.58834 
L 526.932188 31.416465 
Q 526.932188 29.416465 524.932188 29.416465 
L 406.65875 29.416465 
Q 404.65875 29.416465 404.65875 31.416465 
L 404.65875 250.58834 
Q 404.65875 252.58834 406.65875 252.58834 
z
" style="fill: #e5e5e5; opacity: 0.8; stroke: #cccccc; stroke-width: 0.5; stroke-linejoin: miter"/>
    </g>
    <g id="line2d_38">
     <path d="M 408.65875 37.514902 
L 418.65875 37.514902 
L 428.65875 37.514902 
" style="fill: none; stroke: #e24a33; stroke-width: 1.5; stroke-linecap: square"/>
    </g>
    <g id="text_14">
     <!-- Altstadt -->
     <g transform="translate(436.65875 41.014902) scale(0.1 -0.1)">
      <defs>
       <path id="DejaVuSans-41" d="M 2188 4044 
L 1331 1722 
L 3047 1722 
L 2188 4044 
z
M 1831 4666 
L 2547 4666 
L 4325 0 
L 3669 0 
L 3244 1197 
L 1141 1197 
L 716 0 
L 50 0 
L 1831 4666 
z
" transform="scale(0.015625)"/>
       <path id="DejaVuSans-74" d="M 1172 4494 
L 1172 3500 
L 2356 3500 
L 2356 3053 
L 1172 3053 
L 1172 1153 
Q 1172 725 1289 603 
Q 1406 481 1766 481 
L 2356 481 
L 2356 0 
L 1766 0 
Q 1100 0 847 248 
Q 594 497 594 1153 
L 594 3053 
L 172 3053 
L 172 3500 
L 594 3500 
L 594 4494 
L 1172 4494 
z
" transform="scale(0.015625)"/>
       <path id="DejaVuSans-73" d="M 2834 3397 
L 2834 2853 
Q 2591 2978 2328 3040 
Q 2066 3103 1784 3103 
Q 1356 3103 1142 2972 
Q 928 2841 928 2578 
Q 928 2378 1081 2264 
Q 1234 2150 1697 2047 
L 1894 2003 
Q 2506 1872 2764 1633 
Q 3022 1394 3022 966 
Q 3022 478 2636 193 
Q 2250 -91 1575 -91 
Q 1294 -91 989 -36 
Q 684 19 347 128 
L 347 722 
Q 666 556 975 473 
Q 1284 391 1588 391 
Q 1994 391 2212 530 
Q 2431 669 2431 922 
Q 2431 1156 2273 1281 
Q 2116 1406 1581 1522 
L 1381 1569 
Q 847 1681 609 1914 
Q 372 2147 372 2553 
Q 372 3047 722 3315 
Q 1072 3584 1716 3584 
Q 2034 3584 2315 3537 
Q 2597 3491 2834 3397 
z
" transform="scale(0.015625)"/>
       <path id="DejaVuSans-64" d="M 2906 2969 
L 2906 4863 
L 3481 4863 
L 3481 0 
L 2906 0 
L 2906 525 
Q 2725 213 2448 61 
Q 2172 -91 1784 -91 
Q 1150 -91 751 415 
Q 353 922 353 1747 
Q 353 2572 751 3078 
Q 1150 3584 1784 3584 
Q 2172 3584 2448 3432 
Q 2725 3281 2906 2969 
z
M 947 1747 
Q 947 1113 1208 752 
Q 1469 391 1925 391 
Q 2381 391 2643 752 
Q 2906 1113 2906 1747 
Q 2906 2381 2643 2742 
Q 2381 3103 1925 3103 
Q 1469 3103 1208 2742 
Q 947 2381 947 1747 
z
" transform="scale(0.015625)"/>
      </defs>
      <use xlink:href="#DejaVuSans-41"/>
      <use xlink:href="#DejaVuSans-6c" x="68.408203"/>
      <use xlink:href="#DejaVuSans-74" x="96.191406"/>
      <use xlink:href="#DejaVuSans-73" x="135.400391"/>
      <use xlink:href="#DejaVuSans-74" x="187.5"/>
      <use xlink:href="#DejaVuSans-61" x="226.708984"/>
      <use xlink:href="#DejaVuSans-64" x="287.988281"/>
      <use xlink:href="#DejaVuSans-74" x="351.464844"/>
     </g>
    </g>
    <g id="line2d_39">
     <path d="M 408.65875 52.193027 
L 418.65875 52.193027 
L 428.65875 52.193027 
" style="fill: none; stroke: #348abd; stroke-width: 1.5; stroke-linecap: square"/>
    </g>
    <g id="text_15">
     <!-- Bahnstadt -->
     <g transform="translate(436.65875 55.693027) scale(0.1 -0.1)">
      <defs>
       <path id="DejaVuSans-42" d="M 1259 2228 
L 1259 519 
L 2272 519 
Q 2781 519 3026 730 
Q 3272 941 3272 1375 
Q 3272 1813 3026 2020 
Q 2781 2228 2272 2228 
L 1259 2228 
z
M 1259 4147 
L 1259 2741 
L 2194 2741 
Q 2656 2741 2882 2914 
Q 3109 3088 3109 3444 
Q 3109 3797 2882 3972 
Q 2656 4147 2194 4147 
L 1259 4147 
z
M 628 4666 
L 2241 4666 
Q 2963 4666 3353 4366 
Q 3744 4066 3744 3513 
Q 3744 3084 3544 2831 
Q 3344 2578 2956 2516 
Q 3422 2416 3680 2098 
Q 3938 1781 3938 1306 
Q 3938 681 3513 340 
Q 3088 0 2303 0 
L 628 0 
L 628 4666 
z
" transform="scale(0.015625)"/>
      </defs>
      <use xlink:href="#DejaVuSans-42"/>
      <use xlink:href="#DejaVuSans-61" x="68.603516"/>
      <use xlink:href="#DejaVuSans-68" x="129.882812"/>
      <use xlink:href="#DejaVuSans-6e" x="193.261719"/>
      <use xlink:href="#DejaVuSans-73" x="256.640625"/>
      <use xlink:href="#DejaVuSans-74" x="308.740234"/>
      <use xlink:href="#DejaVuSans-61" x="347.949219"/>
      <use xlink:href="#DejaVuSans-64" x="409.228516"/>
      <use xlink:href="#DejaVuSans-74" x="472.705078"/>
     </g>
    </g>
    <g id="line2d_40">
     <path d="M 408.65875 66.871152 
L 418.65875 66.871152 
L 428.65875 66.871152 
" style="fill: none; stroke: #988ed5; stroke-width: 1.5; stroke-linecap: square"/>
    </g>
    <g id="text_16">
     <!-- Bergheim -->
     <g transform="translate(436.65875 70.371152) scale(0.1 -0.1)">
      <defs>
       <path id="DejaVuSans-67" d="M 2906 1791 
Q 2906 2416 2648 2759 
Q 2391 3103 1925 3103 
Q 1463 3103 1205 2759 
Q 947 2416 947 1791 
Q 947 1169 1205 825 
Q 1463 481 1925 481 
Q 2391 481 2648 825 
Q 2906 1169 2906 1791 
z
M 3481 434 
Q 3481 -459 3084 -895 
Q 2688 -1331 1869 -1331 
Q 1566 -1331 1297 -1286 
Q 1028 -1241 775 -1147 
L 775 -588 
Q 1028 -725 1275 -790 
Q 1522 -856 1778 -856 
Q 2344 -856 2625 -561 
Q 2906 -266 2906 331 
L 2906 616 
Q 2728 306 2450 153 
Q 2172 0 1784 0 
Q 1141 0 747 490 
Q 353 981 353 1791 
Q 353 2603 747 3093 
Q 1141 3584 1784 3584 
Q 2172 3584 2450 3431 
Q 2728 3278 2906 2969 
L 2906 3500 
L 3481 3500 
L 3481 434 
z
" transform="scale(0.015625)"/>
      </defs>
      <use xlink:href="#DejaVuSans-42"/>
      <use xlink:href="#DejaVuSans-65" x="68.603516"/>
      <use xlink:href="#DejaVuSans-72" x="130.126953"/>
      <use xlink:href="#DejaVuSans-67" x="169.490234"/>
      <use xlink:href="#DejaVuSans-68" x="232.966797"/>
      <use xlink:href="#DejaVuSans-65" x="296.345703"/>
      <use xlink:href="#DejaVuSans-69" x="357.869141"/>
      <use xlink:href="#DejaVuSans-6d" x="385.652344"/>
     </g>
    </g>
    <g id="line2d_41">
     <path d="M 408.65875 81.549277 
L 418.65875 81.549277 
L 428.65875 81.549277 
" style="fill: none; stroke: #777777; stroke-width: 1.5; stroke-linecap: square"/>
    </g>
    <g id="text_17">
     <!-- Boxberg -->
     <g transform="translate(436.65875 85.049277) scale(0.1 -0.1)">
      <defs>
       <path id="DejaVuSans-78" d="M 3513 3500 
L 2247 1797 
L 3578 0 
L 2900 0 
L 1881 1375 
L 863 0 
L 184 0 
L 1544 1831 
L 300 3500 
L 978 3500 
L 1906 2253 
L 2834 3500 
L 3513 3500 
z
" transform="scale(0.015625)"/>
       <path id="DejaVuSans-62" d="M 3116 1747 
Q 3116 2381 2855 2742 
Q 2594 3103 2138 3103 
Q 1681 3103 1420 2742 
Q 1159 2381 1159 1747 
Q 1159 1113 1420 752 
Q 1681 391 2138 391 
Q 2594 391 2855 752 
Q 3116 1113 3116 1747 
z
M 1159 2969 
Q 1341 3281 1617 3432 
Q 1894 3584 2278 3584 
Q 2916 3584 3314 3078 
Q 3713 2572 3713 1747 
Q 3713 922 3314 415 
Q 2916 -91 2278 -91 
Q 1894 -91 1617 61 
Q 1341 213 1159 525 
L 1159 0 
L 581 0 
L 581 4863 
L 1159 4863 
L 1159 2969 
z
" transform="scale(0.015625)"/>
      </defs>
      <use xlink:href="#DejaVuSans-42"/>
      <use xlink:href="#DejaVuSans-6f" x="68.603516"/>
      <use xlink:href="#DejaVuSans-78" x="126.660156"/>
      <use xlink:href="#DejaVuSans-62" x="185.839844"/>
      <use xlink:href="#DejaVuSans-65" x="249.316406"/>
      <use xlink:href="#DejaVuSans-72" x="310.839844"/>
      <use xlink:href="#DejaVuSans-67" x="350.203125"/>
     </g>
    </g>
    <g id="line2d_42">
     <path d="M 408.65875 96.227402 
L 418.65875 96.227402 
L 428.65875 96.227402 
" style="fill: none; stroke: #fbc15e; stroke-width: 1.5; stroke-linecap: square"/>
    </g>
    <g id="text_18">
     <!-- Emmertsgrund -->
     <g transform="translate(436.65875 99.727402) scale(0.1 -0.1)">
      <defs>
       <path id="DejaVuSans-45" d="M 628 4666 
L 3578 4666 
L 3578 4134 
L 1259 4134 
L 1259 2753 
L 3481 2753 
L 3481 2222 
L 1259 2222 
L 1259 531 
L 3634 531 
L 3634 0 
L 628 0 
L 628 4666 
z
" transform="scale(0.015625)"/>
       <path id="DejaVuSans-75" d="M 544 1381 
L 544 3500 
L 1119 3500 
L 1119 1403 
Q 1119 906 1312 657 
Q 1506 409 1894 409 
Q 2359 409 2629 706 
Q 2900 1003 2900 1516 
L 2900 3500 
L 3475 3500 
L 3475 0 
L 2900 0 
L 2900 538 
Q 2691 219 2414 64 
Q 2138 -91 1772 -91 
Q 1169 -91 856 284 
Q 544 659 544 1381 
z
M 1991 3584 
L 1991 3584 
z
" transform="scale(0.015625)"/>
      </defs>
      <use xlink:href="#DejaVuSans-45"/>
      <use xlink:href="#DejaVuSans-6d" x="63.183594"/>
      <use xlink:href="#DejaVuSans-6d" x="160.595703"/>
      <use xlink:href="#DejaVuSans-65" x="258.007812"/>
      <use xlink:href="#DejaVuSans-72" x="319.53125"/>
      <use xlink:href="#DejaVuSans-74" x="360.644531"/>
      <use xlink:href="#DejaVuSans-73" x="399.853516"/>
      <use xlink:href="#DejaVuSans-67" x="451.953125"/>
      <use xlink:href="#DejaVuSans-72" x="515.429688"/>
      <use xlink:href="#DejaVuSans-75" x="556.542969"/>
      <use xlink:href="#DejaVuSans-6e" x="619.921875"/>
      <use xlink:href="#DejaVuSans-64" x="683.300781"/>
     </g>
    </g>
    <g id="line2d_43">
     <path d="M 408.65875 110.905527 
L 418.65875 110.905527 
L 428.65875 110.905527 
" style="fill: none; stroke: #8eba42; stroke-width: 1.5; stroke-linecap: square"/>
    </g>
    <g id="text_19">
     <!-- Handschuhsheim -->
     <g transform="translate(436.65875 114.405527) scale(0.1 -0.1)">
      <defs>
       <path id="DejaVuSans-48" d="M 628 4666 
L 1259 4666 
L 1259 2753 
L 3553 2753 
L 3553 4666 
L 4184 4666 
L 4184 0 
L 3553 0 
L 3553 2222 
L 1259 2222 
L 1259 0 
L 628 0 
L 628 4666 
z
" transform="scale(0.015625)"/>
      </defs>
      <use xlink:href="#DejaVuSans-48"/>
      <use xlink:href="#DejaVuSans-61" x="75.195312"/>
      <use xlink:href="#DejaVuSans-6e" x="136.474609"/>
      <use xlink:href="#DejaVuSans-64" x="199.853516"/>
      <use xlink:href="#DejaVuSans-73" x="263.330078"/>
      <use xlink:href="#DejaVuSans-63" x="315.429688"/>
      <use xlink:href="#DejaVuSans-68" x="370.410156"/>
      <use xlink:href="#DejaVuSans-75" x="433.789062"/>
      <use xlink:href="#DejaVuSans-68" x="497.167969"/>
      <use xlink:href="#DejaVuSans-73" x="560.546875"/>
      <use xlink:href="#DejaVuSans-68" x="612.646484"/>
      <use xlink:href="#DejaVuSans-65" x="676.025391"/>
      <use xlink:href="#DejaVuSans-69" x="737.548828"/>
      <use xlink:href="#DejaVuSans-6d" x="765.332031"/>
     </g>
    </g>
    <g id="line2d_44">
     <path d="M 408.65875 125.583652 
L 418.65875 125.583652 
L 428.65875 125.583652 
" style="fill: none; stroke: #ffb5b8; stroke-width: 1.5; stroke-linecap: square"/>
    </g>
    <g id="text_20">
     <!-- Kirchheim -->
     <g transform="translate(436.65875 129.083652) scale(0.1 -0.1)">
      <defs>
       <path id="DejaVuSans-4b" d="M 628 4666 
L 1259 4666 
L 1259 2694 
L 3353 4666 
L 4166 4666 
L 1850 2491 
L 4331 0 
L 3500 0 
L 1259 2247 
L 1259 0 
L 628 0 
L 628 4666 
z
" transform="scale(0.015625)"/>
      </defs>
      <use xlink:href="#DejaVuSans-4b"/>
      <use xlink:href="#DejaVuSans-69" x="65.576172"/>
      <use xlink:href="#DejaVuSans-72" x="93.359375"/>
      <use xlink:href="#DejaVuSans-63" x="132.222656"/>
      <use xlink:href="#DejaVuSans-68" x="187.203125"/>
      <use xlink:href="#DejaVuSans-68" x="250.582031"/>
      <use xlink:href="#DejaVuSans-65" x="313.960938"/>
      <use xlink:href="#DejaVuSans-69" x="375.484375"/>
      <use xlink:href="#DejaVuSans-6d" x="403.267578"/>
     </g>
    </g>
    <g id="line2d_45">
     <path d="M 408.65875 140.261777 
L 418.65875 140.261777 
L 428.65875 140.261777 
" style="fill: none; stroke: #e24a33; stroke-width: 1.5; stroke-linecap: square"/>
    </g>
    <g id="text_21">
     <!-- Neuenheim -->
     <g transform="translate(436.65875 143.761777) scale(0.1 -0.1)">
      <defs>
       <path id="DejaVuSans-4e" d="M 628 4666 
L 1478 4666 
L 3547 763 
L 3547 4666 
L 4159 4666 
L 4159 0 
L 3309 0 
L 1241 3903 
L 1241 0 
L 628 0 
L 628 4666 
z
" transform="scale(0.015625)"/>
      </defs>
      <use xlink:href="#DejaVuSans-4e"/>
      <use xlink:href="#DejaVuSans-65" x="74.804688"/>
      <use xlink:href="#DejaVuSans-75" x="136.328125"/>
      <use xlink:href="#DejaVuSans-65" x="199.707031"/>
      <use xlink:href="#DejaVuSans-6e" x="261.230469"/>
      <use xlink:href="#DejaVuSans-68" x="324.609375"/>
      <use xlink:href="#DejaVuSans-65" x="387.988281"/>
      <use xlink:href="#DejaVuSans-69" x="449.511719"/>
      <use xlink:href="#DejaVuSans-6d" x="477.294922"/>
     </g>
    </g>
    <g id="line2d_46">
     <path d="M 408.65875 154.939902 
L 418.65875 154.939902 
L 428.65875 154.939902 
" style="fill: none; stroke: #348abd; stroke-width: 1.5; stroke-linecap: square"/>
    </g>
    <g id="text_22">
     <!-- Pfaffengrund -->
     <g transform="translate(436.65875 158.439902) scale(0.1 -0.1)">
      <defs>
       <path id="DejaVuSans-50" d="M 1259 4147 
L 1259 2394 
L 2053 2394 
Q 2494 2394 2734 2622 
Q 2975 2850 2975 3272 
Q 2975 3691 2734 3919 
Q 2494 4147 2053 4147 
L 1259 4147 
z
M 628 4666 
L 2053 4666 
Q 2838 4666 3239 4311 
Q 3641 3956 3641 3272 
Q 3641 2581 3239 2228 
Q 2838 1875 2053 1875 
L 1259 1875 
L 1259 0 
L 628 0 
L 628 4666 
z
" transform="scale(0.015625)"/>
      </defs>
      <use xlink:href="#DejaVuSans-50"/>
      <use xlink:href="#DejaVuSans-66" x="60.302734"/>
      <use xlink:href="#DejaVuSans-61" x="95.507812"/>
      <use xlink:href="#DejaVuSans-66" x="156.787109"/>
      <use xlink:href="#DejaVuSans-66" x="191.992188"/>
      <use xlink:href="#DejaVuSans-65" x="227.197266"/>
      <use xlink:href="#DejaVuSans-6e" x="288.720703"/>
      <use xlink:href="#DejaVuSans-67" x="352.099609"/>
      <use xlink:href="#DejaVuSans-72" x="415.576172"/>
      <use xlink:href="#DejaVuSans-75" x="456.689453"/>
      <use xlink:href="#DejaVuSans-6e" x="520.068359"/>
      <use xlink:href="#DejaVuSans-64" x="583.447266"/>
     </g>
    </g>
    <g id="line2d_47">
     <path d="M 408.65875 169.618027 
L 418.65875 169.618027 
L 428.65875 169.618027 
" style="fill: none; stroke: #988ed5; stroke-width: 1.5; stroke-linecap: square"/>
    </g>
    <g id="text_23">
     <!-- Rohrbach -->
     <g transform="translate(436.65875 173.118027) scale(0.1 -0.1)">
      <defs>
       <path id="DejaVuSans-52" d="M 2841 2188 
Q 3044 2119 3236 1894 
Q 3428 1669 3622 1275 
L 4263 0 
L 3584 0 
L 2988 1197 
Q 2756 1666 2539 1819 
Q 2322 1972 1947 1972 
L 1259 1972 
L 1259 0 
L 628 0 
L 628 4666 
L 2053 4666 
Q 2853 4666 3247 4331 
Q 3641 3997 3641 3322 
Q 3641 2881 3436 2590 
Q 3231 2300 2841 2188 
z
M 1259 4147 
L 1259 2491 
L 2053 2491 
Q 2509 2491 2742 2702 
Q 2975 2913 2975 3322 
Q 2975 3731 2742 3939 
Q 2509 4147 2053 4147 
L 1259 4147 
z
" transform="scale(0.015625)"/>
      </defs>
      <use xlink:href="#DejaVuSans-52"/>
      <use xlink:href="#DejaVuSans-6f" x="64.982422"/>
      <use xlink:href="#DejaVuSans-68" x="126.164062"/>
      <use xlink:href="#DejaVuSans-72" x="189.542969"/>
      <use xlink:href="#DejaVuSans-62" x="230.65625"/>
      <use xlink:href="#DejaVuSans-61" x="294.132812"/>
      <use xlink:href="#DejaVuSans-63" x="355.412109"/>
      <use xlink:href="#DejaVuSans-68" x="410.392578"/>
     </g>
    </g>
    <g id="line2d_48">
     <path d="M 408.65875 184.296152 
L 418.65875 184.296152 
L 428.65875 184.296152 
" style="fill: none; stroke: #777777; stroke-width: 1.5; stroke-linecap: square"/>
    </g>
    <g id="text_24">
     <!-- Schlierbach -->
     <g transform="translate(436.65875 187.796152) scale(0.1 -0.1)">
      <defs>
       <path id="DejaVuSans-53" d="M 3425 4513 
L 3425 3897 
Q 3066 4069 2747 4153 
Q 2428 4238 2131 4238 
Q 1616 4238 1336 4038 
Q 1056 3838 1056 3469 
Q 1056 3159 1242 3001 
Q 1428 2844 1947 2747 
L 2328 2669 
Q 3034 2534 3370 2195 
Q 3706 1856 3706 1288 
Q 3706 609 3251 259 
Q 2797 -91 1919 -91 
Q 1588 -91 1214 -16 
Q 841 59 441 206 
L 441 856 
Q 825 641 1194 531 
Q 1563 422 1919 422 
Q 2459 422 2753 634 
Q 3047 847 3047 1241 
Q 3047 1584 2836 1778 
Q 2625 1972 2144 2069 
L 1759 2144 
Q 1053 2284 737 2584 
Q 422 2884 422 3419 
Q 422 4038 858 4394 
Q 1294 4750 2059 4750 
Q 2388 4750 2728 4690 
Q 3069 4631 3425 4513 
z
" transform="scale(0.015625)"/>
      </defs>
      <use xlink:href="#DejaVuSans-53"/>
      <use xlink:href="#DejaVuSans-63" x="63.476562"/>
      <use xlink:href="#DejaVuSans-68" x="118.457031"/>
      <use xlink:href="#DejaVuSans-6c" x="181.835938"/>
      <use xlink:href="#DejaVuSans-69" x="209.619141"/>
      <use xlink:href="#DejaVuSans-65" x="237.402344"/>
      <use xlink:href="#DejaVuSans-72" x="298.925781"/>
      <use xlink:href="#DejaVuSans-62" x="340.039062"/>
      <use xlink:href="#DejaVuSans-61" x="403.515625"/>
      <use xlink:href="#DejaVuSans-63" x="464.794922"/>
      <use xlink:href="#DejaVuSans-68" x="519.775391"/>
     </g>
    </g>
    <g id="line2d_49">
     <path d="M 408.65875 198.974277 
L 418.65875 198.974277 
L 428.65875 198.974277 
" style="fill: none; stroke: #fbc15e; stroke-width: 1.5; stroke-linecap: square"/>
    </g>
    <g id="text_25">
     <!-- Südstadt -->
     <g transform="translate(436.65875 202.474277) scale(0.1 -0.1)">
      <defs>
       <path id="DejaVuSans-fc" d="M 544 1381 
L 544 3500 
L 1119 3500 
L 1119 1403 
Q 1119 906 1312 657 
Q 1506 409 1894 409 
Q 2359 409 2629 706 
Q 2900 1003 2900 1516 
L 2900 3500 
L 3475 3500 
L 3475 0 
L 2900 0 
L 2900 538 
Q 2691 219 2414 64 
Q 2138 -91 1772 -91 
Q 1169 -91 856 284 
Q 544 659 544 1381 
z
M 1991 3584 
L 1991 3584 
z
M 2278 4850 
L 2913 4850 
L 2913 4219 
L 2278 4219 
L 2278 4850 
z
M 1056 4850 
L 1691 4850 
L 1691 4219 
L 1056 4219 
L 1056 4850 
z
" transform="scale(0.015625)"/>
      </defs>
      <use xlink:href="#DejaVuSans-53"/>
      <use xlink:href="#DejaVuSans-fc" x="63.476562"/>
      <use xlink:href="#DejaVuSans-64" x="126.855469"/>
      <use xlink:href="#DejaVuSans-73" x="190.332031"/>
      <use xlink:href="#DejaVuSans-74" x="242.431641"/>
      <use xlink:href="#DejaVuSans-61" x="281.640625"/>
      <use xlink:href="#DejaVuSans-64" x="342.919922"/>
      <use xlink:href="#DejaVuSans-74" x="406.396484"/>
     </g>
    </g>
    <g id="line2d_50">
     <path d="M 408.65875 213.652402 
L 418.65875 213.652402 
L 428.65875 213.652402 
" style="fill: none; stroke: #8eba42; stroke-width: 1.5; stroke-linecap: square"/>
    </g>
    <g id="text_26">
     <!-- Weststadt -->
     <g transform="translate(436.65875 217.152402) scale(0.1 -0.1)">
      <defs>
       <path id="DejaVuSans-57" d="M 213 4666 
L 850 4666 
L 1831 722 
L 2809 4666 
L 3519 4666 
L 4500 722 
L 5478 4666 
L 6119 4666 
L 4947 0 
L 4153 0 
L 3169 4050 
L 2175 0 
L 1381 0 
L 213 4666 
z
" transform="scale(0.015625)"/>
      </defs>
      <use xlink:href="#DejaVuSans-57"/>
      <use xlink:href="#DejaVuSans-65" x="93.001953"/>
      <use xlink:href="#DejaVuSans-73" x="154.525391"/>
      <use xlink:href="#DejaVuSans-74" x="206.625"/>
      <use xlink:href="#DejaVuSans-73" x="245.833984"/>
      <use xlink:href="#DejaVuSans-74" x="297.933594"/>
      <use xlink:href="#DejaVuSans-61" x="337.142578"/>
      <use xlink:href="#DejaVuSans-64" x="398.421875"/>
      <use xlink:href="#DejaVuSans-74" x="461.898438"/>
     </g>
    </g>
    <g id="line2d_51">
     <path d="M 408.65875 228.330527 
L 418.65875 228.330527 
L 428.65875 228.330527 
" style="fill: none; stroke: #ffb5b8; stroke-width: 1.5; stroke-linecap: square"/>
    </g>
    <g id="text_27">
     <!-- Wieblingen -->
     <g transform="translate(436.65875 231.830527) scale(0.1 -0.1)">
      <use xlink:href="#DejaVuSans-57"/>
      <use xlink:href="#DejaVuSans-69" x="96.626953"/>
      <use xlink:href="#DejaVuSans-65" x="124.410156"/>
      <use xlink:href="#DejaVuSans-62" x="185.933594"/>
      <use xlink:href="#DejaVuSans-6c" x="249.410156"/>
      <use xlink:href="#DejaVuSans-69" x="277.193359"/>
      <use xlink:href="#DejaVuSans-6e" x="304.976562"/>
      <use xlink:href="#DejaVuSans-67" x="368.355469"/>
      <use xlink:href="#DejaVuSans-65" x="431.832031"/>
      <use xlink:href="#DejaVuSans-6e" x="493.355469"/>
     </g>
    </g>
    <g id="line2d_52">
     <path d="M 408.65875 243.008652 
L 418.65875 243.008652 
L 428.65875 243.008652 
" style="fill: none; stroke: #e24a33; stroke-width: 1.5; stroke-linecap: square"/>
    </g>
    <g id="text_28">
     <!-- Ziegelhausen -->
     <g transform="translate(436.65875 246.508652) scale(0.1 -0.1)">
      <defs>
       <path id="DejaVuSans-5a" d="M 359 4666 
L 4025 4666 
L 4025 4184 
L 1075 531 
L 4097 531 
L 4097 0 
L 288 0 
L 288 481 
L 3238 4134 
L 359 4134 
L 359 4666 
z
" transform="scale(0.015625)"/>
      </defs>
      <use xlink:href="#DejaVuSans-5a"/>
      <use xlink:href="#DejaVuSans-69" x="68.505859"/>
      <use xlink:href="#DejaVuSans-65" x="96.289062"/>
      <use xlink:href="#DejaVuSans-67" x="157.8125"/>
      <use xlink:href="#DejaVuSans-65" x="221.289062"/>
      <use xlink:href="#DejaVuSans-6c" x="282.8125"/>
      <use xlink:href="#DejaVuSans-68" x="310.595703"/>
      <use xlink:href="#DejaVuSans-61" x="373.974609"/>
      <use xlink:href="#DejaVuSans-75" x="435.253906"/>
      <use xlink:href="#DejaVuSans-73" x="498.632812"/>
      <use xlink:href="#DejaVuSans-65" x="550.732422"/>
      <use xlink:href="#DejaVuSans-6e" x="612.255859"/>
     </g>
    </g>
   </g>
  </g>
 </g>
 <defs>
  <clipPath id="p455666c3fb">
   <rect x="42.53875" y="7.946402" width="357.12" height="266.112"/>
  </clipPath>
 </defs>
</svg>
