<?xml version="1.0" encoding="utf-8" standalone="no"?>
<!DOCTYPE svg PUBLIC "-//W3C//DTD SVG 1.1//EN"
  "http://www.w3.org/Graphics/SVG/1.1/DTD/svg11.dtd">
<svg xmlns:xlink="http://www.w3.org/1999/xlink" width="534.132187pt" height="312.803875pt" viewBox="0 0 534.132187 312.803875" xmlns="http://www.w3.org/2000/svg" version="1.1">
 <metadata>
  <rdf:RDF xmlns:dc="http://purl.org/dc/elements/1.1/" xmlns:cc="http://creativecommons.org/ns#" xmlns:rdf="http://www.w3.org/1999/02/22-rdf-syntax-ns#">
   <cc:Work>
    <dc:type rdf:resource="http://purl.org/dc/dcmitype/StillImage"/>
    <dc:date>1980-01-01T00:00:00+00:00</dc:date>
    <dc:format>image/svg+xml</dc:format>
    <dc:creator>
     <cc:Agent>
      <dc:title>Matplotlib v3.8.2, https://matplotlib.org/</dc:title>
     </cc:Agent>
    </dc:creator>
   </cc:Work>
  </rdf:RDF>
 </metadata>
 <defs>
  <style type="text/css">*{stroke-linejoin: round; stroke-linecap: butt}</style>
 </defs>
 <g id="figure_1">
  <g id="patch_1">
   <path d="M -0 312.803875 
L 534.132187 312.803875 
L 534.132187 0 
L -0 0 
z
" style="fill: #ffffff"/>
  </g>
  <g id="axes_1">
   <g id="patch_2">
    <path d="M 42.53875 273.312 
L 399.65875 273.312 
L 399.65875 7.2 
L 42.53875 7.2 
z
" style="fill: #e5e5e5"/>
   </g>
   <g id="matplotlib.axis_1">
    <g id="xtick_1">
     <g id="line2d_1">
      <path d="M 58.771477 273.312 
L 58.771477 7.2 
" clip-path="url(#p0cbced1276)" style="fill: none; stroke: #ffffff; stroke-width: 0.8; stroke-linecap: square"/>
     </g>
     <g id="line2d_2">
      <defs>
       <path id="ma0aa1f5db8" d="M 0 0 
L 0 3.5 
" style="stroke: #555555; stroke-width: 0.8"/>
      </defs>
      <g>
       <use xlink:href="#ma0aa1f5db8" x="58.771477" y="273.312" style="fill: #555555; stroke: #555555; stroke-width: 0.8"/>
      </g>
     </g>
     <g id="text_1">
      <!-- 0 -->
      <g style="fill: #555555" transform="translate(55.590227 287.910438) scale(0.1 -0.1)">
       <defs>
        <path id="DejaVuSans-30" d="M 2034 4250 
Q 1547 4250 1301 3770 
Q 1056 3291 1056 2328 
Q 1056 1369 1301 889 
Q 1547 409 2034 409 
Q 2525 409 2770 889 
Q 3016 1369 3016 2328 
Q 3016 3291 2770 3770 
Q 2525 4250 2034 4250 
z
M 2034 4750 
Q 2819 4750 3233 4129 
Q 3647 3509 3647 2328 
Q 3647 1150 3233 529 
Q 2819 -91 2034 -91 
Q 1250 -91 836 529 
Q 422 1150 422 2328 
Q 422 3509 836 4129 
Q 1250 4750 2034 4750 
z
" transform="scale(0.015625)"/>
       </defs>
       <use xlink:href="#DejaVuSans-30"/>
      </g>
     </g>
    </g>
    <g id="xtick_2">
     <g id="line2d_3">
      <path d="M 129.348552 273.312 
L 129.348552 7.2 
" clip-path="url(#p0cbced1276)" style="fill: none; stroke: #ffffff; stroke-width: 0.8; stroke-linecap: square"/>
     </g>
     <g id="line2d_4">
      <g>
       <use xlink:href="#ma0aa1f5db8" x="129.348552" y="273.312" style="fill: #555555; stroke: #555555; stroke-width: 0.8"/>
      </g>
     </g>
     <g id="text_2">
      <!-- 5 -->
      <g style="fill: #555555" transform="translate(126.167302 287.910438) scale(0.1 -0.1)">
       <defs>
        <path id="DejaVuSans-35" d="M 691 4666 
L 3169 4666 
L 3169 4134 
L 1269 4134 
L 1269 2991 
Q 1406 3038 1543 3061 
Q 1681 3084 1819 3084 
Q 2600 3084 3056 2656 
Q 3513 2228 3513 1497 
Q 3513 744 3044 326 
Q 2575 -91 1722 -91 
Q 1428 -91 1123 -41 
Q 819 9 494 109 
L 494 744 
Q 775 591 1075 516 
Q 1375 441 1709 441 
Q 2250 441 2565 725 
Q 2881 1009 2881 1497 
Q 2881 1984 2565 2268 
Q 2250 2553 1709 2553 
Q 1456 2553 1204 2497 
Q 953 2441 691 2322 
L 691 4666 
z
" transform="scale(0.015625)"/>
       </defs>
       <use xlink:href="#DejaVuSans-35"/>
      </g>
     </g>
    </g>
    <g id="xtick_3">
     <g id="line2d_5">
      <path d="M 199.925627 273.312 
L 199.925627 7.2 
" clip-path="url(#p0cbced1276)" style="fill: none; stroke: #ffffff; stroke-width: 0.8; stroke-linecap: square"/>
     </g>
     <g id="line2d_6">
      <g>
       <use xlink:href="#ma0aa1f5db8" x="199.925627" y="273.312" style="fill: #555555; stroke: #555555; stroke-width: 0.8"/>
      </g>
     </g>
     <g id="text_3">
      <!-- 10 -->
      <g style="fill: #555555" transform="translate(193.563127 287.910438) scale(0.1 -0.1)">
       <defs>
        <path id="DejaVuSans-31" d="M 794 531 
L 1825 531 
L 1825 4091 
L 703 3866 
L 703 4441 
L 1819 4666 
L 2450 4666 
L 2450 531 
L 3481 531 
L 3481 0 
L 794 0 
L 794 531 
z
" transform="scale(0.015625)"/>
       </defs>
       <use xlink:href="#DejaVuSans-31"/>
       <use xlink:href="#DejaVuSans-30" x="63.623047"/>
      </g>
     </g>
    </g>
    <g id="xtick_4">
     <g id="line2d_7">
      <path d="M 270.502703 273.312 
L 270.502703 7.2 
" clip-path="url(#p0cbced1276)" style="fill: none; stroke: #ffffff; stroke-width: 0.8; stroke-linecap: square"/>
     </g>
     <g id="line2d_8">
      <g>
       <use xlink:href="#ma0aa1f5db8" x="270.502703" y="273.312" style="fill: #555555; stroke: #555555; stroke-width: 0.8"/>
      </g>
     </g>
     <g id="text_4">
      <!-- 15 -->
      <g style="fill: #555555" transform="translate(264.140203 287.910438) scale(0.1 -0.1)">
       <use xlink:href="#DejaVuSans-31"/>
       <use xlink:href="#DejaVuSans-35" x="63.623047"/>
      </g>
     </g>
    </g>
    <g id="xtick_5">
     <g id="line2d_9">
      <path d="M 341.079778 273.312 
L 341.079778 7.2 
" clip-path="url(#p0cbced1276)" style="fill: none; stroke: #ffffff; stroke-width: 0.8; stroke-linecap: square"/>
     </g>
     <g id="line2d_10">
      <g>
       <use xlink:href="#ma0aa1f5db8" x="341.079778" y="273.312" style="fill: #555555; stroke: #555555; stroke-width: 0.8"/>
      </g>
     </g>
     <g id="text_5">
      <!-- 20 -->
      <g style="fill: #555555" transform="translate(334.717278 287.910438) scale(0.1 -0.1)">
       <defs>
        <path id="DejaVuSans-32" d="M 1228 531 
L 3431 531 
L 3431 0 
L 469 0 
L 469 531 
Q 828 903 1448 1529 
Q 2069 2156 2228 2338 
Q 2531 2678 2651 2914 
Q 2772 3150 2772 3378 
Q 2772 3750 2511 3984 
Q 2250 4219 1831 4219 
Q 1534 4219 1204 4116 
Q 875 4013 500 3803 
L 500 4441 
Q 881 4594 1212 4672 
Q 1544 4750 1819 4750 
Q 2544 4750 2975 4387 
Q 3406 4025 3406 3419 
Q 3406 3131 3298 2873 
Q 3191 2616 2906 2266 
Q 2828 2175 2409 1742 
Q 1991 1309 1228 531 
z
" transform="scale(0.015625)"/>
       </defs>
       <use xlink:href="#DejaVuSans-32"/>
       <use xlink:href="#DejaVuSans-30" x="63.623047"/>
      </g>
     </g>
    </g>
    <g id="text_6">
     <!-- Time of Day [h] -->
     <g style="fill: #555555" transform="translate(174.581875 303.10825) scale(0.12 -0.12)">
      <defs>
       <path id="DejaVuSans-54" d="M -19 4666 
L 3928 4666 
L 3928 4134 
L 2272 4134 
L 2272 0 
L 1638 0 
L 1638 4134 
L -19 4134 
L -19 4666 
z
" transform="scale(0.015625)"/>
       <path id="DejaVuSans-69" d="M 603 3500 
L 1178 3500 
L 1178 0 
L 603 0 
L 603 3500 
z
M 603 4863 
L 1178 4863 
L 1178 4134 
L 603 4134 
L 603 4863 
z
" transform="scale(0.015625)"/>
       <path id="DejaVuSans-6d" d="M 3328 2828 
Q 3544 3216 3844 3400 
Q 4144 3584 4550 3584 
Q 5097 3584 5394 3201 
Q 5691 2819 5691 2113 
L 5691 0 
L 5113 0 
L 5113 2094 
Q 5113 2597 4934 2840 
Q 4756 3084 4391 3084 
Q 3944 3084 3684 2787 
Q 3425 2491 3425 1978 
L 3425 0 
L 2847 0 
L 2847 2094 
Q 2847 2600 2669 2842 
Q 2491 3084 2119 3084 
Q 1678 3084 1418 2786 
Q 1159 2488 1159 1978 
L 1159 0 
L 581 0 
L 581 3500 
L 1159 3500 
L 1159 2956 
Q 1356 3278 1631 3431 
Q 1906 3584 2284 3584 
Q 2666 3584 2933 3390 
Q 3200 3197 3328 2828 
z
" transform="scale(0.015625)"/>
       <path id="DejaVuSans-65" d="M 3597 1894 
L 3597 1613 
L 953 1613 
Q 991 1019 1311 708 
Q 1631 397 2203 397 
Q 2534 397 2845 478 
Q 3156 559 3463 722 
L 3463 178 
Q 3153 47 2828 -22 
Q 2503 -91 2169 -91 
Q 1331 -91 842 396 
Q 353 884 353 1716 
Q 353 2575 817 3079 
Q 1281 3584 2069 3584 
Q 2775 3584 3186 3129 
Q 3597 2675 3597 1894 
z
M 3022 2063 
Q 3016 2534 2758 2815 
Q 2500 3097 2075 3097 
Q 1594 3097 1305 2825 
Q 1016 2553 972 2059 
L 3022 2063 
z
" transform="scale(0.015625)"/>
       <path id="DejaVuSans-20" transform="scale(0.015625)"/>
       <path id="DejaVuSans-6f" d="M 1959 3097 
Q 1497 3097 1228 2736 
Q 959 2375 959 1747 
Q 959 1119 1226 758 
Q 1494 397 1959 397 
Q 2419 397 2687 759 
Q 2956 1122 2956 1747 
Q 2956 2369 2687 2733 
Q 2419 3097 1959 3097 
z
M 1959 3584 
Q 2709 3584 3137 3096 
Q 3566 2609 3566 1747 
Q 3566 888 3137 398 
Q 2709 -91 1959 -91 
Q 1206 -91 779 398 
Q 353 888 353 1747 
Q 353 2609 779 3096 
Q 1206 3584 1959 3584 
z
" transform="scale(0.015625)"/>
       <path id="DejaVuSans-66" d="M 2375 4863 
L 2375 4384 
L 1825 4384 
Q 1516 4384 1395 4259 
Q 1275 4134 1275 3809 
L 1275 3500 
L 2222 3500 
L 2222 3053 
L 1275 3053 
L 1275 0 
L 697 0 
L 697 3053 
L 147 3053 
L 147 3500 
L 697 3500 
L 697 3744 
Q 697 4328 969 4595 
Q 1241 4863 1831 4863 
L 2375 4863 
z
" transform="scale(0.015625)"/>
       <path id="DejaVuSans-44" d="M 1259 4147 
L 1259 519 
L 2022 519 
Q 2988 519 3436 956 
Q 3884 1394 3884 2338 
Q 3884 3275 3436 3711 
Q 2988 4147 2022 4147 
L 1259 4147 
z
M 628 4666 
L 1925 4666 
Q 3281 4666 3915 4102 
Q 4550 3538 4550 2338 
Q 4550 1131 3912 565 
Q 3275 0 1925 0 
L 628 0 
L 628 4666 
z
" transform="scale(0.015625)"/>
       <path id="DejaVuSans-61" d="M 2194 1759 
Q 1497 1759 1228 1600 
Q 959 1441 959 1056 
Q 959 750 1161 570 
Q 1363 391 1709 391 
Q 2188 391 2477 730 
Q 2766 1069 2766 1631 
L 2766 1759 
L 2194 1759 
z
M 3341 1997 
L 3341 0 
L 2766 0 
L 2766 531 
Q 2569 213 2275 61 
Q 1981 -91 1556 -91 
Q 1019 -91 701 211 
Q 384 513 384 1019 
Q 384 1609 779 1909 
Q 1175 2209 1959 2209 
L 2766 2209 
L 2766 2266 
Q 2766 2663 2505 2880 
Q 2244 3097 1772 3097 
Q 1472 3097 1187 3025 
Q 903 2953 641 2809 
L 641 3341 
Q 956 3463 1253 3523 
Q 1550 3584 1831 3584 
Q 2591 3584 2966 3190 
Q 3341 2797 3341 1997 
z
" transform="scale(0.015625)"/>
       <path id="DejaVuSans-79" d="M 2059 -325 
Q 1816 -950 1584 -1140 
Q 1353 -1331 966 -1331 
L 506 -1331 
L 506 -850 
L 844 -850 
Q 1081 -850 1212 -737 
Q 1344 -625 1503 -206 
L 1606 56 
L 191 3500 
L 800 3500 
L 1894 763 
L 2988 3500 
L 3597 3500 
L 2059 -325 
z
" transform="scale(0.015625)"/>
       <path id="DejaVuSans-5b" d="M 550 4863 
L 1875 4863 
L 1875 4416 
L 1125 4416 
L 1125 -397 
L 1875 -397 
L 1875 -844 
L 550 -844 
L 550 4863 
z
" transform="scale(0.015625)"/>
       <path id="DejaVuSans-68" d="M 3513 2113 
L 3513 0 
L 2938 0 
L 2938 2094 
Q 2938 2591 2744 2837 
Q 2550 3084 2163 3084 
Q 1697 3084 1428 2787 
Q 1159 2491 1159 1978 
L 1159 0 
L 581 0 
L 581 4863 
L 1159 4863 
L 1159 2956 
Q 1366 3272 1645 3428 
Q 1925 3584 2291 3584 
Q 2894 3584 3203 3211 
Q 3513 2838 3513 2113 
z
" transform="scale(0.015625)"/>
       <path id="DejaVuSans-5d" d="M 1947 4863 
L 1947 -844 
L 622 -844 
L 622 -397 
L 1369 -397 
L 1369 4416 
L 622 4416 
L 622 4863 
L 1947 4863 
z
" transform="scale(0.015625)"/>
      </defs>
      <use xlink:href="#DejaVuSans-54"/>
      <use xlink:href="#DejaVuSans-69" x="57.958984"/>
      <use xlink:href="#DejaVuSans-6d" x="85.742188"/>
      <use xlink:href="#DejaVuSans-65" x="183.154297"/>
      <use xlink:href="#DejaVuSans-20" x="244.677734"/>
      <use xlink:href="#DejaVuSans-6f" x="276.464844"/>
      <use xlink:href="#DejaVuSans-66" x="337.646484"/>
      <use xlink:href="#DejaVuSans-20" x="372.851562"/>
      <use xlink:href="#DejaVuSans-44" x="404.638672"/>
      <use xlink:href="#DejaVuSans-61" x="481.640625"/>
      <use xlink:href="#DejaVuSans-79" x="542.919922"/>
      <use xlink:href="#DejaVuSans-20" x="602.099609"/>
      <use xlink:href="#DejaVuSans-5b" x="633.886719"/>
      <use xlink:href="#DejaVuSans-68" x="672.900391"/>
      <use xlink:href="#DejaVuSans-5d" x="736.279297"/>
     </g>
    </g>
   </g>
   <g id="matplotlib.axis_2">
    <g id="ytick_1">
     <g id="line2d_11">
      <path d="M 42.53875 241.491646 
L 399.65875 241.491646 
" clip-path="url(#p0cbced1276)" style="fill: none; stroke: #ffffff; stroke-width: 0.8; stroke-linecap: square"/>
     </g>
     <g id="line2d_12">
      <defs>
       <path id="m3a5df6550c" d="M 0 0 
L -3.5 0 
" style="stroke: #555555; stroke-width: 0.8"/>
      </defs>
      <g>
       <use xlink:href="#m3a5df6550c" x="42.53875" y="241.491646" style="fill: #555555; stroke: #555555; stroke-width: 0.8"/>
      </g>
     </g>
     <g id="text_7">
      <!-- 55 -->
      <g style="fill: #555555" transform="translate(22.81375 245.290865) scale(0.1 -0.1)">
       <use xlink:href="#DejaVuSans-35"/>
       <use xlink:href="#DejaVuSans-35" x="63.623047"/>
      </g>
     </g>
    </g>
    <g id="ytick_2">
     <g id="line2d_13">
      <path d="M 42.53875 204.239072 
L 399.65875 204.239072 
" clip-path="url(#p0cbced1276)" style="fill: none; stroke: #ffffff; stroke-width: 0.8; stroke-linecap: square"/>
     </g>
     <g id="line2d_14">
      <g>
       <use xlink:href="#m3a5df6550c" x="42.53875" y="204.239072" style="fill: #555555; stroke: #555555; stroke-width: 0.8"/>
      </g>
     </g>
     <g id="text_8">
      <!-- 60 -->
      <g style="fill: #555555" transform="translate(22.81375 208.03829) scale(0.1 -0.1)">
       <defs>
        <path id="DejaVuSans-36" d="M 2113 2584 
Q 1688 2584 1439 2293 
Q 1191 2003 1191 1497 
Q 1191 994 1439 701 
Q 1688 409 2113 409 
Q 2538 409 2786 701 
Q 3034 994 3034 1497 
Q 3034 2003 2786 2293 
Q 2538 2584 2113 2584 
z
M 3366 4563 
L 3366 3988 
Q 3128 4100 2886 4159 
Q 2644 4219 2406 4219 
Q 1781 4219 1451 3797 
Q 1122 3375 1075 2522 
Q 1259 2794 1537 2939 
Q 1816 3084 2150 3084 
Q 2853 3084 3261 2657 
Q 3669 2231 3669 1497 
Q 3669 778 3244 343 
Q 2819 -91 2113 -91 
Q 1303 -91 875 529 
Q 447 1150 447 2328 
Q 447 3434 972 4092 
Q 1497 4750 2381 4750 
Q 2619 4750 2861 4703 
Q 3103 4656 3366 4563 
z
" transform="scale(0.015625)"/>
       </defs>
       <use xlink:href="#DejaVuSans-36"/>
       <use xlink:href="#DejaVuSans-30" x="63.623047"/>
      </g>
     </g>
    </g>
    <g id="ytick_3">
     <g id="line2d_15">
      <path d="M 42.53875 166.986497 
L 399.65875 166.986497 
" clip-path="url(#p0cbced1276)" style="fill: none; stroke: #ffffff; stroke-width: 0.8; stroke-linecap: square"/>
     </g>
     <g id="line2d_16">
      <g>
       <use xlink:href="#m3a5df6550c" x="42.53875" y="166.986497" style="fill: #555555; stroke: #555555; stroke-width: 0.8"/>
      </g>
     </g>
     <g id="text_9">
      <!-- 65 -->
      <g style="fill: #555555" transform="translate(22.81375 170.785716) scale(0.1 -0.1)">
       <use xlink:href="#DejaVuSans-36"/>
       <use xlink:href="#DejaVuSans-35" x="63.623047"/>
      </g>
     </g>
    </g>
    <g id="ytick_4">
     <g id="line2d_17">
      <path d="M 42.53875 129.733923 
L 399.65875 129.733923 
" clip-path="url(#p0cbced1276)" style="fill: none; stroke: #ffffff; stroke-width: 0.8; stroke-linecap: square"/>
     </g>
     <g id="line2d_18">
      <g>
       <use xlink:href="#m3a5df6550c" x="42.53875" y="129.733923" style="fill: #555555; stroke: #555555; stroke-width: 0.8"/>
      </g>
     </g>
     <g id="text_10">
      <!-- 70 -->
      <g style="fill: #555555" transform="translate(22.81375 133.533142) scale(0.1 -0.1)">
       <defs>
        <path id="DejaVuSans-37" d="M 525 4666 
L 3525 4666 
L 3525 4397 
L 1831 0 
L 1172 0 
L 2766 4134 
L 525 4134 
L 525 4666 
z
" transform="scale(0.015625)"/>
       </defs>
       <use xlink:href="#DejaVuSans-37"/>
       <use xlink:href="#DejaVuSans-30" x="63.623047"/>
      </g>
     </g>
    </g>
    <g id="ytick_5">
     <g id="line2d_19">
      <path d="M 42.53875 92.481349 
L 399.65875 92.481349 
" clip-path="url(#p0cbced1276)" style="fill: none; stroke: #ffffff; stroke-width: 0.8; stroke-linecap: square"/>
     </g>
     <g id="line2d_20">
      <g>
       <use xlink:href="#m3a5df6550c" x="42.53875" y="92.481349" style="fill: #555555; stroke: #555555; stroke-width: 0.8"/>
      </g>
     </g>
     <g id="text_11">
      <!-- 75 -->
      <g style="fill: #555555" transform="translate(22.81375 96.280567) scale(0.1 -0.1)">
       <use xlink:href="#DejaVuSans-37"/>
       <use xlink:href="#DejaVuSans-35" x="63.623047"/>
      </g>
     </g>
    </g>
    <g id="ytick_6">
     <g id="line2d_21">
      <path d="M 42.53875 55.228774 
L 399.65875 55.228774 
" clip-path="url(#p0cbced1276)" style="fill: none; stroke: #ffffff; stroke-width: 0.8; stroke-linecap: square"/>
     </g>
     <g id="line2d_22">
      <g>
       <use xlink:href="#m3a5df6550c" x="42.53875" y="55.228774" style="fill: #555555; stroke: #555555; stroke-width: 0.8"/>
      </g>
     </g>
     <g id="text_12">
      <!-- 80 -->
      <g style="fill: #555555" transform="translate(22.81375 59.027993) scale(0.1 -0.1)">
       <defs>
        <path id="DejaVuSans-38" d="M 2034 2216 
Q 1584 2216 1326 1975 
Q 1069 1734 1069 1313 
Q 1069 891 1326 650 
Q 1584 409 2034 409 
Q 2484 409 2743 651 
Q 3003 894 3003 1313 
Q 3003 1734 2745 1975 
Q 2488 2216 2034 2216 
z
M 1403 2484 
Q 997 2584 770 2862 
Q 544 3141 544 3541 
Q 544 4100 942 4425 
Q 1341 4750 2034 4750 
Q 2731 4750 3128 4425 
Q 3525 4100 3525 3541 
Q 3525 3141 3298 2862 
Q 3072 2584 2669 2484 
Q 3125 2378 3379 2068 
Q 3634 1759 3634 1313 
Q 3634 634 3220 271 
Q 2806 -91 2034 -91 
Q 1263 -91 848 271 
Q 434 634 434 1313 
Q 434 1759 690 2068 
Q 947 2378 1403 2484 
z
M 1172 3481 
Q 1172 3119 1398 2916 
Q 1625 2713 2034 2713 
Q 2441 2713 2670 2916 
Q 2900 3119 2900 3481 
Q 2900 3844 2670 4047 
Q 2441 4250 2034 4250 
Q 1625 4250 1398 4047 
Q 1172 3844 1172 3481 
z
" transform="scale(0.015625)"/>
       </defs>
       <use xlink:href="#DejaVuSans-38"/>
       <use xlink:href="#DejaVuSans-30" x="63.623047"/>
      </g>
     </g>
    </g>
    <g id="ytick_7">
     <g id="line2d_23">
      <path d="M 42.53875 17.9762 
L 399.65875 17.9762 
" clip-path="url(#p0cbced1276)" style="fill: none; stroke: #ffffff; stroke-width: 0.8; stroke-linecap: square"/>
     </g>
     <g id="line2d_24">
      <g>
       <use xlink:href="#m3a5df6550c" x="42.53875" y="17.9762" style="fill: #555555; stroke: #555555; stroke-width: 0.8"/>
      </g>
     </g>
     <g id="text_13">
      <!-- 85 -->
      <g style="fill: #555555" transform="translate(22.81375 21.775419) scale(0.1 -0.1)">
       <use xlink:href="#DejaVuSans-38"/>
       <use xlink:href="#DejaVuSans-35" x="63.623047"/>
      </g>
     </g>
    </g>
    <g id="text_14">
     <!-- Average Travel Time [min] -->
     <g style="fill: #555555" transform="translate(16.318125 219.125063) rotate(-90) scale(0.12 -0.12)">
      <defs>
       <path id="DejaVuSans-41" d="M 2188 4044 
L 1331 1722 
L 3047 1722 
L 2188 4044 
z
M 1831 4666 
L 2547 4666 
L 4325 0 
L 3669 0 
L 3244 1197 
L 1141 1197 
L 716 0 
L 50 0 
L 1831 4666 
z
" transform="scale(0.015625)"/>
       <path id="DejaVuSans-76" d="M 191 3500 
L 800 3500 
L 1894 563 
L 2988 3500 
L 3597 3500 
L 2284 0 
L 1503 0 
L 191 3500 
z
" transform="scale(0.015625)"/>
       <path id="DejaVuSans-72" d="M 2631 2963 
Q 2534 3019 2420 3045 
Q 2306 3072 2169 3072 
Q 1681 3072 1420 2755 
Q 1159 2438 1159 1844 
L 1159 0 
L 581 0 
L 581 3500 
L 1159 3500 
L 1159 2956 
Q 1341 3275 1631 3429 
Q 1922 3584 2338 3584 
Q 2397 3584 2469 3576 
Q 2541 3569 2628 3553 
L 2631 2963 
z
" transform="scale(0.015625)"/>
       <path id="DejaVuSans-67" d="M 2906 1791 
Q 2906 2416 2648 2759 
Q 2391 3103 1925 3103 
Q 1463 3103 1205 2759 
Q 947 2416 947 1791 
Q 947 1169 1205 825 
Q 1463 481 1925 481 
Q 2391 481 2648 825 
Q 2906 1169 2906 1791 
z
M 3481 434 
Q 3481 -459 3084 -895 
Q 2688 -1331 1869 -1331 
Q 1566 -1331 1297 -1286 
Q 1028 -1241 775 -1147 
L 775 -588 
Q 1028 -725 1275 -790 
Q 1522 -856 1778 -856 
Q 2344 -856 2625 -561 
Q 2906 -266 2906 331 
L 2906 616 
Q 2728 306 2450 153 
Q 2172 0 1784 0 
Q 1141 0 747 490 
Q 353 981 353 1791 
Q 353 2603 747 3093 
Q 1141 3584 1784 3584 
Q 2172 3584 2450 3431 
Q 2728 3278 2906 2969 
L 2906 3500 
L 3481 3500 
L 3481 434 
z
" transform="scale(0.015625)"/>
       <path id="DejaVuSans-6c" d="M 603 4863 
L 1178 4863 
L 1178 0 
L 603 0 
L 603 4863 
z
" transform="scale(0.015625)"/>
       <path id="DejaVuSans-6e" d="M 3513 2113 
L 3513 0 
L 2938 0 
L 2938 2094 
Q 2938 2591 2744 2837 
Q 2550 3084 2163 3084 
Q 1697 3084 1428 2787 
Q 1159 2491 1159 1978 
L 1159 0 
L 581 0 
L 581 3500 
L 1159 3500 
L 1159 2956 
Q 1366 3272 1645 3428 
Q 1925 3584 2291 3584 
Q 2894 3584 3203 3211 
Q 3513 2838 3513 2113 
z
" transform="scale(0.015625)"/>
      </defs>
      <use xlink:href="#DejaVuSans-41"/>
      <use xlink:href="#DejaVuSans-76" x="62.533203"/>
      <use xlink:href="#DejaVuSans-65" x="121.712891"/>
      <use xlink:href="#DejaVuSans-72" x="183.236328"/>
      <use xlink:href="#DejaVuSans-61" x="224.349609"/>
      <use xlink:href="#DejaVuSans-67" x="285.628906"/>
      <use xlink:href="#DejaVuSans-65" x="349.105469"/>
      <use xlink:href="#DejaVuSans-20" x="410.628906"/>
      <use xlink:href="#DejaVuSans-54" x="442.416016"/>
      <use xlink:href="#DejaVuSans-72" x="488.75"/>
      <use xlink:href="#DejaVuSans-61" x="529.863281"/>
      <use xlink:href="#DejaVuSans-76" x="591.142578"/>
      <use xlink:href="#DejaVuSans-65" x="650.322266"/>
      <use xlink:href="#DejaVuSans-6c" x="711.845703"/>
      <use xlink:href="#DejaVuSans-20" x="739.628906"/>
      <use xlink:href="#DejaVuSans-54" x="771.416016"/>
      <use xlink:href="#DejaVuSans-69" x="829.375"/>
      <use xlink:href="#DejaVuSans-6d" x="857.158203"/>
      <use xlink:href="#DejaVuSans-65" x="954.570312"/>
      <use xlink:href="#DejaVuSans-20" x="1016.09375"/>
      <use xlink:href="#DejaVuSans-5b" x="1047.880859"/>
      <use xlink:href="#DejaVuSans-6d" x="1086.894531"/>
      <use xlink:href="#DejaVuSans-69" x="1184.306641"/>
      <use xlink:href="#DejaVuSans-6e" x="1212.089844"/>
      <use xlink:href="#DejaVuSans-5d" x="1275.46875"/>
     </g>
    </g>
   </g>
   <g id="line2d_25">
    <path d="M 58.771477 63.694613 
L 72.886892 61.227771 
L 87.002307 61.065953 
L 101.117722 62.157599 
L 115.233137 129.299282 
L 129.348552 194.603083 
L 143.463967 211.569455 
L 157.579382 223.986036 
L 171.694797 227.163086 
L 185.810212 221.332932 
L 199.925627 217.290006 
L 214.041042 221.311234 
L 228.156458 224.01541 
L 242.271873 222.656119 
L 256.387288 221.872916 
L 270.502703 224.981172 
L 284.618118 229.623485 
L 298.733533 230.115902 
L 312.848948 228.192509 
L 326.964363 207.868599 
L 341.079778 193.099091 
L 355.195193 176.255778 
L 369.310608 162.882591 
L 383.426023 168.09609 
" clip-path="url(#p0cbced1276)" style="fill: none; stroke: #e24a33; stroke-width: 1.5; stroke-linecap: square"/>
   </g>
   <g id="line2d_26">
    <path d="M 58.771477 71.239144 
L 72.886892 68.704972 
L 87.002307 66.668917 
L 101.117722 66.511033 
L 115.233137 159.659732 
L 129.348552 204.522894 
L 143.463967 228.947111 
L 157.579382 233.316636 
L 171.694797 238.968986 
L 185.810212 230.757636 
L 199.925627 230.264784 
L 214.041042 232.001843 
L 228.156458 237.525923 
L 242.271873 235.56981 
L 256.387288 231.160982 
L 270.502703 235.956845 
L 284.618118 237.688191 
L 298.733533 234.264592 
L 312.848948 230.23274 
L 326.964363 208.414571 
L 341.079778 193.828841 
L 355.195193 183.448542 
L 369.310608 167.072662 
L 383.426023 161.924767 
" clip-path="url(#p0cbced1276)" style="fill: none; stroke: #348abd; stroke-width: 1.5; stroke-linecap: square"/>
   </g>
   <g id="line2d_27">
    <path d="M 58.771477 70.693954 
L 72.886892 68.687327 
L 87.002307 68.108886 
L 101.117722 74.768385 
L 115.233137 173.514349 
L 129.348552 222.288873 
L 143.463967 244.322927 
L 157.579382 249.337922 
L 171.694797 255.932507 
L 185.810212 246.452543 
L 199.925627 247.584737 
L 214.041042 249.406601 
L 228.156458 254.019085 
L 242.271873 254.243336 
L 256.387288 249.0953 
L 270.502703 253.273415 
L 284.618118 254.471068 
L 298.733533 251.671482 
L 312.848948 249.627279 
L 326.964363 227.437347 
L 341.079778 208.68521 
L 355.195193 200.685182 
L 369.310608 182.247502 
L 383.426023 190.535854 
" clip-path="url(#p0cbced1276)" style="fill: none; stroke: #988ed5; stroke-width: 1.5; stroke-linecap: square"/>
   </g>
   <g id="line2d_28">
    <path d="M 58.771477 89.014856 
L 72.886892 89.014856 
L 87.002307 87.117002 
L 101.117722 48.23173 
L 115.233137 89.011273 
L 129.348552 143.221283 
L 143.463967 153.128802 
L 157.579382 163.34926 
L 171.694797 166.401044 
L 185.810212 159.861826 
L 199.925627 145.301924 
L 214.041042 147.13 
L 228.156458 142.615022 
L 242.271873 143.880431 
L 256.387288 160.414611 
L 270.502703 156.198602 
L 284.618118 168.352724 
L 298.733533 171.208648 
L 312.848948 172.942277 
L 326.964363 142.178563 
L 341.079778 134.237192 
L 355.195193 130.558308 
L 369.310608 111.96586 
L 383.426023 99.145244 
" clip-path="url(#p0cbced1276)" style="fill: none; stroke: #777777; stroke-width: 1.5; stroke-linecap: square"/>
   </g>
   <g id="line2d_29">
    <path d="M 58.771477 68.952446 
L 72.886892 68.952446 
L 87.002307 66.6125 
L 101.117722 19.296 
L 115.233137 69.762234 
L 129.348552 128.637496 
L 143.463967 152.182867 
L 157.579382 152.392264 
L 171.694797 154.172858 
L 185.810212 146.903457 
L 199.925627 145.915176 
L 214.041042 147.539484 
L 228.156458 122.301196 
L 242.271873 137.864588 
L 256.387288 151.707436 
L 270.502703 148.494073 
L 284.618118 142.518738 
L 298.733533 158.301813 
L 312.848948 158.541333 
L 326.964363 143.747954 
L 341.079778 126.705667 
L 355.195193 115.659779 
L 369.310608 95.487601 
L 383.426023 90.76723 
" clip-path="url(#p0cbced1276)" style="fill: none; stroke: #fbc15e; stroke-width: 1.5; stroke-linecap: square"/>
   </g>
   <g id="line2d_30">
    <path d="M 58.771477 55.573088 
L 72.886892 56.353571 
L 87.002307 54.085477 
L 101.117722 31.872322 
L 115.233137 77.469292 
L 129.348552 160.470404 
L 143.463967 176.168103 
L 157.579382 186.420077 
L 171.694797 188.773029 
L 185.810212 181.06926 
L 199.925627 180.495766 
L 214.041042 184.975308 
L 228.156458 188.719514 
L 242.271873 184.665867 
L 256.387288 179.809316 
L 270.502703 187.405364 
L 284.618118 187.575308 
L 298.733533 187.766827 
L 312.848948 186.26744 
L 326.964363 178.426088 
L 341.079778 153.836003 
L 355.195193 141.755242 
L 369.310608 131.176064 
L 383.426023 133.439504 
" clip-path="url(#p0cbced1276)" style="fill: none; stroke: #8eba42; stroke-width: 1.5; stroke-linecap: square"/>
   </g>
   <g id="line2d_31">
    <path d="M 58.771477 77.403698 
L 72.886892 72.622641 
L 87.002307 72.503641 
L 101.117722 53.458078 
L 115.233137 93.359725 
L 129.348552 149.308245 
L 143.463967 168.627817 
L 157.579382 177.052623 
L 171.694797 169.609158 
L 185.810212 167.567874 
L 199.925627 165.291953 
L 214.041042 166.680986 
L 228.156458 173.398847 
L 242.271873 172.076128 
L 256.387288 170.2968 
L 270.502703 170.335037 
L 284.618118 170.309242 
L 298.733533 172.813046 
L 312.848948 173.760807 
L 326.964363 165.717833 
L 341.079778 137.626198 
L 355.195193 128.018268 
L 369.310608 121.287385 
L 383.426023 117.90692 
" clip-path="url(#p0cbced1276)" style="fill: none; stroke: #ffb5b8; stroke-width: 1.5; stroke-linecap: square"/>
   </g>
   <g id="line2d_32">
    <path d="M 58.771477 60.134429 
L 72.886892 59.396849 
L 87.002307 59.355655 
L 101.117722 61.520303 
L 115.233137 130.454459 
L 129.348552 190.415359 
L 143.463967 211.555325 
L 157.579382 221.504019 
L 171.694797 225.812184 
L 185.810212 217.639515 
L 199.925627 216.844282 
L 214.041042 220.253345 
L 228.156458 223.804806 
L 242.271873 223.041168 
L 256.387288 217.147963 
L 270.502703 223.995344 
L 284.618118 224.721073 
L 298.733533 225.167326 
L 312.848948 222.889732 
L 326.964363 206.418133 
L 341.079778 185.452485 
L 355.195193 175.334661 
L 369.310608 160.207725 
L 383.426023 165.049408 
" clip-path="url(#p0cbced1276)" style="fill: none; stroke: #e24a33; stroke-width: 1.5; stroke-linecap: square"/>
   </g>
   <g id="line2d_33">
    <path d="M 58.771477 63.220523 
L 72.886892 61.800232 
L 87.002307 60.682855 
L 101.117722 52.963258 
L 115.233137 110.301558 
L 129.348552 157.281215 
L 143.463967 179.766675 
L 157.579382 184.910815 
L 171.694797 184.650555 
L 185.810212 179.739227 
L 199.925627 178.358413 
L 214.041042 181.463223 
L 228.156458 187.180293 
L 242.271873 184.106545 
L 256.387288 178.630343 
L 270.502703 183.568755 
L 284.618118 186.450619 
L 298.733533 182.743278 
L 312.848948 183.321668 
L 326.964363 174.837818 
L 341.079778 156.700092 
L 355.195193 142.798186 
L 369.310608 130.031241 
L 383.426023 116.124945 
" clip-path="url(#p0cbced1276)" style="fill: none; stroke: #348abd; stroke-width: 1.5; stroke-linecap: square"/>
   </g>
   <g id="line2d_34">
    <path d="M 58.771477 77.936485 
L 72.886892 72.589231 
L 87.002307 71.474148 
L 101.117722 43.745365 
L 115.233137 104.347654 
L 129.348552 164.865817 
L 143.463967 176.417491 
L 157.579382 183.761266 
L 171.694797 186.409215 
L 185.810212 179.207742 
L 199.925627 178.194877 
L 214.041042 180.274226 
L 228.156458 180.040028 
L 242.271873 182.705555 
L 256.387288 180.399753 
L 270.502703 183.674335 
L 284.618118 185.696618 
L 298.733533 188.40099 
L 312.848948 190.057386 
L 326.964363 174.962774 
L 341.079778 158.981066 
L 355.195193 148.072194 
L 369.310608 123.857766 
L 383.426023 114.568947 
" clip-path="url(#p0cbced1276)" style="fill: none; stroke: #988ed5; stroke-width: 1.5; stroke-linecap: square"/>
   </g>
   <g id="line2d_35">
    <path d="M 58.771477 59.957066 
L 72.886892 58.676792 
L 87.002307 57.232455 
L 101.117722 36.160194 
L 115.233137 54.243095 
L 129.348552 172.061987 
L 143.463967 184.240784 
L 157.579382 191.632266 
L 171.694797 187.819672 
L 185.810212 183.055256 
L 199.925627 184.510633 
L 214.041042 188.981096 
L 228.156458 191.109735 
L 242.271873 189.040166 
L 256.387288 186.179399 
L 270.502703 191.660341 
L 284.618118 197.948135 
L 298.733533 191.390645 
L 312.848948 187.738719 
L 326.964363 174.127406 
L 341.079778 154.953357 
L 355.195193 131.363411 
L 369.310608 130.077985 
L 383.426023 129.058575 
" clip-path="url(#p0cbced1276)" style="fill: none; stroke: #777777; stroke-width: 1.5; stroke-linecap: square"/>
   </g>
   <g id="line2d_36">
    <path d="M 58.771477 78.926892 
L 72.886892 73.531904 
L 87.002307 73.531904 
L 101.117722 70.424594 
L 115.233137 146.842769 
L 129.348552 200.76486 
L 143.463967 216.05467 
L 157.579382 224.517793 
L 171.694797 229.657128 
L 185.810212 220.998496 
L 199.925627 222.126487 
L 214.041042 222.836423 
L 228.156458 227.220663 
L 242.271873 228.157803 
L 256.387288 221.663146 
L 270.502703 227.879476 
L 284.618118 229.582967 
L 298.733533 230.842601 
L 312.848948 227.655696 
L 326.964363 211.292246 
L 341.079778 196.674087 
L 355.195193 185.670856 
L 369.310608 158.048529 
L 383.426023 156.888203 
" clip-path="url(#p0cbced1276)" style="fill: none; stroke: #fbc15e; stroke-width: 1.5; stroke-linecap: square"/>
   </g>
   <g id="line2d_37">
    <path d="M 58.771477 85.106037 
L 72.886892 74.336804 
L 87.002307 73.822281 
L 101.117722 76.103115 
L 115.233137 179.207177 
L 129.348552 225.589007 
L 143.463967 248.236713 
L 157.579382 253.316473 
L 171.694797 261.216 
L 185.810212 251.826628 
L 199.925627 252.768772 
L 214.041042 253.487553 
L 228.156458 257.825144 
L 242.271873 258.517036 
L 256.387288 254.200271 
L 270.502703 258.269853 
L 284.618118 259.18582 
L 298.733533 258.112612 
L 312.848948 255.991875 
L 326.964363 234.731598 
L 341.079778 219.577513 
L 355.195193 209.330994 
L 369.310608 189.405037 
L 383.426023 192.617473 
" clip-path="url(#p0cbced1276)" style="fill: none; stroke: #8eba42; stroke-width: 1.5; stroke-linecap: square"/>
   </g>
   <g id="line2d_38">
    <path d="M 58.771477 51.776429 
L 72.886892 51.487505 
L 87.002307 48.331113 
L 101.117722 35.707109 
L 115.233137 122.448707 
L 129.348552 154.436944 
L 143.463967 174.582932 
L 157.579382 180.210571 
L 171.694797 183.279665 
L 185.810212 176.20815 
L 199.925627 176.307646 
L 214.041042 179.508563 
L 228.156458 182.237186 
L 242.271873 181.885209 
L 256.387288 176.497275 
L 270.502703 180.828841 
L 284.618118 183.755476 
L 298.733533 179.012191 
L 312.848948 179.952907 
L 326.964363 163.036971 
L 341.079778 135.758849 
L 355.195193 122.732212 
L 369.310608 115.446151 
L 383.426023 122.964768 
" clip-path="url(#p0cbced1276)" style="fill: none; stroke: #ffb5b8; stroke-width: 1.5; stroke-linecap: square"/>
   </g>
   <g id="line2d_39">
    <path d="M 58.771477 74.843834 
L 72.886892 74.701484 
L 87.002307 74.291678 
L 101.117722 59.594795 
L 115.233137 53.491845 
L 129.348552 145.413361 
L 143.463967 168.242499 
L 157.579382 169.632522 
L 171.694797 167.462485 
L 185.810212 163.637886 
L 199.925627 166.142501 
L 214.041042 168.755219 
L 228.156458 171.077324 
L 242.271873 168.299422 
L 256.387288 170.401342 
L 270.502703 171.922439 
L 284.618118 172.764017 
L 298.733533 169.077866 
L 312.848948 165.16008 
L 326.964363 154.446987 
L 341.079778 137.805719 
L 355.195193 122.127408 
L 369.310608 123.632144 
L 383.426023 118.514766 
" clip-path="url(#p0cbced1276)" style="fill: none; stroke: #e24a33; stroke-width: 1.5; stroke-linecap: square"/>
   </g>
   <g id="patch_3">
    <path d="M 42.53875 273.312 
L 42.53875 7.2 
" style="fill: none; stroke: #ffffff; stroke-linejoin: miter; stroke-linecap: square"/>
   </g>
   <g id="patch_4">
    <path d="M 399.65875 273.312 
L 399.65875 7.2 
" style="fill: none; stroke: #ffffff; stroke-linejoin: miter; stroke-linecap: square"/>
   </g>
   <g id="patch_5">
    <path d="M 42.53875 273.312 
L 399.65875 273.312 
" style="fill: none; stroke: #ffffff; stroke-linejoin: miter; stroke-linecap: square"/>
   </g>
   <g id="patch_6">
    <path d="M 42.53875 7.2 
L 399.65875 7.2 
" style="fill: none; stroke: #ffffff; stroke-linejoin: miter; stroke-linecap: square"/>
   </g>
   <g id="legend_1">
    <g id="patch_7">
     <path d="M 406.65875 251.841937 
L 524.932188 251.841937 
Q 526.932188 251.841937 526.932188 249.841937 
L 526.932188 30.670063 
Q 526.932188 28.670063 524.932188 28.670063 
L 406.65875 28.670063 
Q 404.65875 28.670063 404.65875 30.670063 
L 404.65875 249.841937 
Q 404.65875 251.841937 406.65875 251.841937 
z
" style="fill: #e5e5e5; opacity: 0.8; stroke: #cccccc; stroke-width: 0.5; stroke-linejoin: miter"/>
    </g>
    <g id="line2d_40">
     <path d="M 408.65875 36.7685 
L 418.65875 36.7685 
L 428.65875 36.7685 
" style="fill: none; stroke: #e24a33; stroke-width: 1.5; stroke-linecap: square"/>
    </g>
    <g id="text_15">
     <!-- Altstadt -->
     <g transform="translate(436.65875 40.2685) scale(0.1 -0.1)">
      <defs>
       <path id="DejaVuSans-74" d="M 1172 4494 
L 1172 3500 
L 2356 3500 
L 2356 3053 
L 1172 3053 
L 1172 1153 
Q 1172 725 1289 603 
Q 1406 481 1766 481 
L 2356 481 
L 2356 0 
L 1766 0 
Q 1100 0 847 248 
Q 594 497 594 1153 
L 594 3053 
L 172 3053 
L 172 3500 
L 594 3500 
L 594 4494 
L 1172 4494 
z
" transform="scale(0.015625)"/>
       <path id="DejaVuSans-73" d="M 2834 3397 
L 2834 2853 
Q 2591 2978 2328 3040 
Q 2066 3103 1784 3103 
Q 1356 3103 1142 2972 
Q 928 2841 928 2578 
Q 928 2378 1081 2264 
Q 1234 2150 1697 2047 
L 1894 2003 
Q 2506 1872 2764 1633 
Q 3022 1394 3022 966 
Q 3022 478 2636 193 
Q 2250 -91 1575 -91 
Q 1294 -91 989 -36 
Q 684 19 347 128 
L 347 722 
Q 666 556 975 473 
Q 1284 391 1588 391 
Q 1994 391 2212 530 
Q 2431 669 2431 922 
Q 2431 1156 2273 1281 
Q 2116 1406 1581 1522 
L 1381 1569 
Q 847 1681 609 1914 
Q 372 2147 372 2553 
Q 372 3047 722 3315 
Q 1072 3584 1716 3584 
Q 2034 3584 2315 3537 
Q 2597 3491 2834 3397 
z
" transform="scale(0.015625)"/>
       <path id="DejaVuSans-64" d="M 2906 2969 
L 2906 4863 
L 3481 4863 
L 3481 0 
L 2906 0 
L 2906 525 
Q 2725 213 2448 61 
Q 2172 -91 1784 -91 
Q 1150 -91 751 415 
Q 353 922 353 1747 
Q 353 2572 751 3078 
Q 1150 3584 1784 3584 
Q 2172 3584 2448 3432 
Q 2725 3281 2906 2969 
z
M 947 1747 
Q 947 1113 1208 752 
Q 1469 391 1925 391 
Q 2381 391 2643 752 
Q 2906 1113 2906 1747 
Q 2906 2381 2643 2742 
Q 2381 3103 1925 3103 
Q 1469 3103 1208 2742 
Q 947 2381 947 1747 
z
" transform="scale(0.015625)"/>
      </defs>
      <use xlink:href="#DejaVuSans-41"/>
      <use xlink:href="#DejaVuSans-6c" x="68.408203"/>
      <use xlink:href="#DejaVuSans-74" x="96.191406"/>
      <use xlink:href="#DejaVuSans-73" x="135.400391"/>
      <use xlink:href="#DejaVuSans-74" x="187.5"/>
      <use xlink:href="#DejaVuSans-61" x="226.708984"/>
      <use xlink:href="#DejaVuSans-64" x="287.988281"/>
      <use xlink:href="#DejaVuSans-74" x="351.464844"/>
     </g>
    </g>
    <g id="line2d_41">
     <path d="M 408.65875 51.446625 
L 418.65875 51.446625 
L 428.65875 51.446625 
" style="fill: none; stroke: #348abd; stroke-width: 1.5; stroke-linecap: square"/>
    </g>
    <g id="text_16">
     <!-- Bahnstadt -->
     <g transform="translate(436.65875 54.946625) scale(0.1 -0.1)">
      <defs>
       <path id="DejaVuSans-42" d="M 1259 2228 
L 1259 519 
L 2272 519 
Q 2781 519 3026 730 
Q 3272 941 3272 1375 
Q 3272 1813 3026 2020 
Q 2781 2228 2272 2228 
L 1259 2228 
z
M 1259 4147 
L 1259 2741 
L 2194 2741 
Q 2656 2741 2882 2914 
Q 3109 3088 3109 3444 
Q 3109 3797 2882 3972 
Q 2656 4147 2194 4147 
L 1259 4147 
z
M 628 4666 
L 2241 4666 
Q 2963 4666 3353 4366 
Q 3744 4066 3744 3513 
Q 3744 3084 3544 2831 
Q 3344 2578 2956 2516 
Q 3422 2416 3680 2098 
Q 3938 1781 3938 1306 
Q 3938 681 3513 340 
Q 3088 0 2303 0 
L 628 0 
L 628 4666 
z
" transform="scale(0.015625)"/>
      </defs>
      <use xlink:href="#DejaVuSans-42"/>
      <use xlink:href="#DejaVuSans-61" x="68.603516"/>
      <use xlink:href="#DejaVuSans-68" x="129.882812"/>
      <use xlink:href="#DejaVuSans-6e" x="193.261719"/>
      <use xlink:href="#DejaVuSans-73" x="256.640625"/>
      <use xlink:href="#DejaVuSans-74" x="308.740234"/>
      <use xlink:href="#DejaVuSans-61" x="347.949219"/>
      <use xlink:href="#DejaVuSans-64" x="409.228516"/>
      <use xlink:href="#DejaVuSans-74" x="472.705078"/>
     </g>
    </g>
    <g id="line2d_42">
     <path d="M 408.65875 66.12475 
L 418.65875 66.12475 
L 428.65875 66.12475 
" style="fill: none; stroke: #988ed5; stroke-width: 1.5; stroke-linecap: square"/>
    </g>
    <g id="text_17">
     <!-- Bergheim -->
     <g transform="translate(436.65875 69.62475) scale(0.1 -0.1)">
      <use xlink:href="#DejaVuSans-42"/>
      <use xlink:href="#DejaVuSans-65" x="68.603516"/>
      <use xlink:href="#DejaVuSans-72" x="130.126953"/>
      <use xlink:href="#DejaVuSans-67" x="169.490234"/>
      <use xlink:href="#DejaVuSans-68" x="232.966797"/>
      <use xlink:href="#DejaVuSans-65" x="296.345703"/>
      <use xlink:href="#DejaVuSans-69" x="357.869141"/>
      <use xlink:href="#DejaVuSans-6d" x="385.652344"/>
     </g>
    </g>
    <g id="line2d_43">
     <path d="M 408.65875 80.802875 
L 418.65875 80.802875 
L 428.65875 80.802875 
" style="fill: none; stroke: #777777; stroke-width: 1.5; stroke-linecap: square"/>
    </g>
    <g id="text_18">
     <!-- Boxberg -->
     <g transform="translate(436.65875 84.302875) scale(0.1 -0.1)">
      <defs>
       <path id="DejaVuSans-78" d="M 3513 3500 
L 2247 1797 
L 3578 0 
L 2900 0 
L 1881 1375 
L 863 0 
L 184 0 
L 1544 1831 
L 300 3500 
L 978 3500 
L 1906 2253 
L 2834 3500 
L 3513 3500 
z
" transform="scale(0.015625)"/>
       <path id="DejaVuSans-62" d="M 3116 1747 
Q 3116 2381 2855 2742 
Q 2594 3103 2138 3103 
Q 1681 3103 1420 2742 
Q 1159 2381 1159 1747 
Q 1159 1113 1420 752 
Q 1681 391 2138 391 
Q 2594 391 2855 752 
Q 3116 1113 3116 1747 
z
M 1159 2969 
Q 1341 3281 1617 3432 
Q 1894 3584 2278 3584 
Q 2916 3584 3314 3078 
Q 3713 2572 3713 1747 
Q 3713 922 3314 415 
Q 2916 -91 2278 -91 
Q 1894 -91 1617 61 
Q 1341 213 1159 525 
L 1159 0 
L 581 0 
L 581 4863 
L 1159 4863 
L 1159 2969 
z
" transform="scale(0.015625)"/>
      </defs>
      <use xlink:href="#DejaVuSans-42"/>
      <use xlink:href="#DejaVuSans-6f" x="68.603516"/>
      <use xlink:href="#DejaVuSans-78" x="126.660156"/>
      <use xlink:href="#DejaVuSans-62" x="185.839844"/>
      <use xlink:href="#DejaVuSans-65" x="249.316406"/>
      <use xlink:href="#DejaVuSans-72" x="310.839844"/>
      <use xlink:href="#DejaVuSans-67" x="350.203125"/>
     </g>
    </g>
    <g id="line2d_44">
     <path d="M 408.65875 95.481 
L 418.65875 95.481 
L 428.65875 95.481 
" style="fill: none; stroke: #fbc15e; stroke-width: 1.5; stroke-linecap: square"/>
    </g>
    <g id="text_19">
     <!-- Emmertsgrund -->
     <g transform="translate(436.65875 98.981) scale(0.1 -0.1)">
      <defs>
       <path id="DejaVuSans-45" d="M 628 4666 
L 3578 4666 
L 3578 4134 
L 1259 4134 
L 1259 2753 
L 3481 2753 
L 3481 2222 
L 1259 2222 
L 1259 531 
L 3634 531 
L 3634 0 
L 628 0 
L 628 4666 
z
" transform="scale(0.015625)"/>
       <path id="DejaVuSans-75" d="M 544 1381 
L 544 3500 
L 1119 3500 
L 1119 1403 
Q 1119 906 1312 657 
Q 1506 409 1894 409 
Q 2359 409 2629 706 
Q 2900 1003 2900 1516 
L 2900 3500 
L 3475 3500 
L 3475 0 
L 2900 0 
L 2900 538 
Q 2691 219 2414 64 
Q 2138 -91 1772 -91 
Q 1169 -91 856 284 
Q 544 659 544 1381 
z
M 1991 3584 
L 1991 3584 
z
" transform="scale(0.015625)"/>
      </defs>
      <use xlink:href="#DejaVuSans-45"/>
      <use xlink:href="#DejaVuSans-6d" x="63.183594"/>
      <use xlink:href="#DejaVuSans-6d" x="160.595703"/>
      <use xlink:href="#DejaVuSans-65" x="258.007812"/>
      <use xlink:href="#DejaVuSans-72" x="319.53125"/>
      <use xlink:href="#DejaVuSans-74" x="360.644531"/>
      <use xlink:href="#DejaVuSans-73" x="399.853516"/>
      <use xlink:href="#DejaVuSans-67" x="451.953125"/>
      <use xlink:href="#DejaVuSans-72" x="515.429688"/>
      <use xlink:href="#DejaVuSans-75" x="556.542969"/>
      <use xlink:href="#DejaVuSans-6e" x="619.921875"/>
      <use xlink:href="#DejaVuSans-64" x="683.300781"/>
     </g>
    </g>
    <g id="line2d_45">
     <path d="M 408.65875 110.159125 
L 418.65875 110.159125 
L 428.65875 110.159125 
" style="fill: none; stroke: #8eba42; stroke-width: 1.5; stroke-linecap: square"/>
    </g>
    <g id="text_20">
     <!-- Handschuhsheim -->
     <g transform="translate(436.65875 113.659125) scale(0.1 -0.1)">
      <defs>
       <path id="DejaVuSans-48" d="M 628 4666 
L 1259 4666 
L 1259 2753 
L 3553 2753 
L 3553 4666 
L 4184 4666 
L 4184 0 
L 3553 0 
L 3553 2222 
L 1259 2222 
L 1259 0 
L 628 0 
L 628 4666 
z
" transform="scale(0.015625)"/>
       <path id="DejaVuSans-63" d="M 3122 3366 
L 3122 2828 
Q 2878 2963 2633 3030 
Q 2388 3097 2138 3097 
Q 1578 3097 1268 2742 
Q 959 2388 959 1747 
Q 959 1106 1268 751 
Q 1578 397 2138 397 
Q 2388 397 2633 464 
Q 2878 531 3122 666 
L 3122 134 
Q 2881 22 2623 -34 
Q 2366 -91 2075 -91 
Q 1284 -91 818 406 
Q 353 903 353 1747 
Q 353 2603 823 3093 
Q 1294 3584 2113 3584 
Q 2378 3584 2631 3529 
Q 2884 3475 3122 3366 
z
" transform="scale(0.015625)"/>
      </defs>
      <use xlink:href="#DejaVuSans-48"/>
      <use xlink:href="#DejaVuSans-61" x="75.195312"/>
      <use xlink:href="#DejaVuSans-6e" x="136.474609"/>
      <use xlink:href="#DejaVuSans-64" x="199.853516"/>
      <use xlink:href="#DejaVuSans-73" x="263.330078"/>
      <use xlink:href="#DejaVuSans-63" x="315.429688"/>
      <use xlink:href="#DejaVuSans-68" x="370.410156"/>
      <use xlink:href="#DejaVuSans-75" x="433.789062"/>
      <use xlink:href="#DejaVuSans-68" x="497.167969"/>
      <use xlink:href="#DejaVuSans-73" x="560.546875"/>
      <use xlink:href="#DejaVuSans-68" x="612.646484"/>
      <use xlink:href="#DejaVuSans-65" x="676.025391"/>
      <use xlink:href="#DejaVuSans-69" x="737.548828"/>
      <use xlink:href="#DejaVuSans-6d" x="765.332031"/>
     </g>
    </g>
    <g id="line2d_46">
     <path d="M 408.65875 124.83725 
L 418.65875 124.83725 
L 428.65875 124.83725 
" style="fill: none; stroke: #ffb5b8; stroke-width: 1.5; stroke-linecap: square"/>
    </g>
    <g id="text_21">
     <!-- Kirchheim -->
     <g transform="translate(436.65875 128.33725) scale(0.1 -0.1)">
      <defs>
       <path id="DejaVuSans-4b" d="M 628 4666 
L 1259 4666 
L 1259 2694 
L 3353 4666 
L 4166 4666 
L 1850 2491 
L 4331 0 
L 3500 0 
L 1259 2247 
L 1259 0 
L 628 0 
L 628 4666 
z
" transform="scale(0.015625)"/>
      </defs>
      <use xlink:href="#DejaVuSans-4b"/>
      <use xlink:href="#DejaVuSans-69" x="65.576172"/>
      <use xlink:href="#DejaVuSans-72" x="93.359375"/>
      <use xlink:href="#DejaVuSans-63" x="132.222656"/>
      <use xlink:href="#DejaVuSans-68" x="187.203125"/>
      <use xlink:href="#DejaVuSans-68" x="250.582031"/>
      <use xlink:href="#DejaVuSans-65" x="313.960938"/>
      <use xlink:href="#DejaVuSans-69" x="375.484375"/>
      <use xlink:href="#DejaVuSans-6d" x="403.267578"/>
     </g>
    </g>
    <g id="line2d_47">
     <path d="M 408.65875 139.515375 
L 418.65875 139.515375 
L 428.65875 139.515375 
" style="fill: none; stroke: #e24a33; stroke-width: 1.5; stroke-linecap: square"/>
    </g>
    <g id="text_22">
     <!-- Neuenheim -->
     <g transform="translate(436.65875 143.015375) scale(0.1 -0.1)">
      <defs>
       <path id="DejaVuSans-4e" d="M 628 4666 
L 1478 4666 
L 3547 763 
L 3547 4666 
L 4159 4666 
L 4159 0 
L 3309 0 
L 1241 3903 
L 1241 0 
L 628 0 
L 628 4666 
z
" transform="scale(0.015625)"/>
      </defs>
      <use xlink:href="#DejaVuSans-4e"/>
      <use xlink:href="#DejaVuSans-65" x="74.804688"/>
      <use xlink:href="#DejaVuSans-75" x="136.328125"/>
      <use xlink:href="#DejaVuSans-65" x="199.707031"/>
      <use xlink:href="#DejaVuSans-6e" x="261.230469"/>
      <use xlink:href="#DejaVuSans-68" x="324.609375"/>
      <use xlink:href="#DejaVuSans-65" x="387.988281"/>
      <use xlink:href="#DejaVuSans-69" x="449.511719"/>
      <use xlink:href="#DejaVuSans-6d" x="477.294922"/>
     </g>
    </g>
    <g id="line2d_48">
     <path d="M 408.65875 154.1935 
L 418.65875 154.1935 
L 428.65875 154.1935 
" style="fill: none; stroke: #348abd; stroke-width: 1.5; stroke-linecap: square"/>
    </g>
    <g id="text_23">
     <!-- Pfaffengrund -->
     <g transform="translate(436.65875 157.6935) scale(0.1 -0.1)">
      <defs>
       <path id="DejaVuSans-50" d="M 1259 4147 
L 1259 2394 
L 2053 2394 
Q 2494 2394 2734 2622 
Q 2975 2850 2975 3272 
Q 2975 3691 2734 3919 
Q 2494 4147 2053 4147 
L 1259 4147 
z
M 628 4666 
L 2053 4666 
Q 2838 4666 3239 4311 
Q 3641 3956 3641 3272 
Q 3641 2581 3239 2228 
Q 2838 1875 2053 1875 
L 1259 1875 
L 1259 0 
L 628 0 
L 628 4666 
z
" transform="scale(0.015625)"/>
      </defs>
      <use xlink:href="#DejaVuSans-50"/>
      <use xlink:href="#DejaVuSans-66" x="60.302734"/>
      <use xlink:href="#DejaVuSans-61" x="95.507812"/>
      <use xlink:href="#DejaVuSans-66" x="156.787109"/>
      <use xlink:href="#DejaVuSans-66" x="191.992188"/>
      <use xlink:href="#DejaVuSans-65" x="227.197266"/>
      <use xlink:href="#DejaVuSans-6e" x="288.720703"/>
      <use xlink:href="#DejaVuSans-67" x="352.099609"/>
      <use xlink:href="#DejaVuSans-72" x="415.576172"/>
      <use xlink:href="#DejaVuSans-75" x="456.689453"/>
      <use xlink:href="#DejaVuSans-6e" x="520.068359"/>
      <use xlink:href="#DejaVuSans-64" x="583.447266"/>
     </g>
    </g>
    <g id="line2d_49">
     <path d="M 408.65875 168.871625 
L 418.65875 168.871625 
L 428.65875 168.871625 
" style="fill: none; stroke: #988ed5; stroke-width: 1.5; stroke-linecap: square"/>
    </g>
    <g id="text_24">
     <!-- Rohrbach -->
     <g transform="translate(436.65875 172.371625) scale(0.1 -0.1)">
      <defs>
       <path id="DejaVuSans-52" d="M 2841 2188 
Q 3044 2119 3236 1894 
Q 3428 1669 3622 1275 
L 4263 0 
L 3584 0 
L 2988 1197 
Q 2756 1666 2539 1819 
Q 2322 1972 1947 1972 
L 1259 1972 
L 1259 0 
L 628 0 
L 628 4666 
L 2053 4666 
Q 2853 4666 3247 4331 
Q 3641 3997 3641 3322 
Q 3641 2881 3436 2590 
Q 3231 2300 2841 2188 
z
M 1259 4147 
L 1259 2491 
L 2053 2491 
Q 2509 2491 2742 2702 
Q 2975 2913 2975 3322 
Q 2975 3731 2742 3939 
Q 2509 4147 2053 4147 
L 1259 4147 
z
" transform="scale(0.015625)"/>
      </defs>
      <use xlink:href="#DejaVuSans-52"/>
      <use xlink:href="#DejaVuSans-6f" x="64.982422"/>
      <use xlink:href="#DejaVuSans-68" x="126.164062"/>
      <use xlink:href="#DejaVuSans-72" x="189.542969"/>
      <use xlink:href="#DejaVuSans-62" x="230.65625"/>
      <use xlink:href="#DejaVuSans-61" x="294.132812"/>
      <use xlink:href="#DejaVuSans-63" x="355.412109"/>
      <use xlink:href="#DejaVuSans-68" x="410.392578"/>
     </g>
    </g>
    <g id="line2d_50">
     <path d="M 408.65875 183.54975 
L 418.65875 183.54975 
L 428.65875 183.54975 
" style="fill: none; stroke: #777777; stroke-width: 1.5; stroke-linecap: square"/>
    </g>
    <g id="text_25">
     <!-- Schlierbach -->
     <g transform="translate(436.65875 187.04975) scale(0.1 -0.1)">
      <defs>
       <path id="DejaVuSans-53" d="M 3425 4513 
L 3425 3897 
Q 3066 4069 2747 4153 
Q 2428 4238 2131 4238 
Q 1616 4238 1336 4038 
Q 1056 3838 1056 3469 
Q 1056 3159 1242 3001 
Q 1428 2844 1947 2747 
L 2328 2669 
Q 3034 2534 3370 2195 
Q 3706 1856 3706 1288 
Q 3706 609 3251 259 
Q 2797 -91 1919 -91 
Q 1588 -91 1214 -16 
Q 841 59 441 206 
L 441 856 
Q 825 641 1194 531 
Q 1563 422 1919 422 
Q 2459 422 2753 634 
Q 3047 847 3047 1241 
Q 3047 1584 2836 1778 
Q 2625 1972 2144 2069 
L 1759 2144 
Q 1053 2284 737 2584 
Q 422 2884 422 3419 
Q 422 4038 858 4394 
Q 1294 4750 2059 4750 
Q 2388 4750 2728 4690 
Q 3069 4631 3425 4513 
z
" transform="scale(0.015625)"/>
      </defs>
      <use xlink:href="#DejaVuSans-53"/>
      <use xlink:href="#DejaVuSans-63" x="63.476562"/>
      <use xlink:href="#DejaVuSans-68" x="118.457031"/>
      <use xlink:href="#DejaVuSans-6c" x="181.835938"/>
      <use xlink:href="#DejaVuSans-69" x="209.619141"/>
      <use xlink:href="#DejaVuSans-65" x="237.402344"/>
      <use xlink:href="#DejaVuSans-72" x="298.925781"/>
      <use xlink:href="#DejaVuSans-62" x="340.039062"/>
      <use xlink:href="#DejaVuSans-61" x="403.515625"/>
      <use xlink:href="#DejaVuSans-63" x="464.794922"/>
      <use xlink:href="#DejaVuSans-68" x="519.775391"/>
     </g>
    </g>
    <g id="line2d_51">
     <path d="M 408.65875 198.227875 
L 418.65875 198.227875 
L 428.65875 198.227875 
" style="fill: none; stroke: #fbc15e; stroke-width: 1.5; stroke-linecap: square"/>
    </g>
    <g id="text_26">
     <!-- Südstadt -->
     <g transform="translate(436.65875 201.727875) scale(0.1 -0.1)">
      <defs>
       <path id="DejaVuSans-fc" d="M 544 1381 
L 544 3500 
L 1119 3500 
L 1119 1403 
Q 1119 906 1312 657 
Q 1506 409 1894 409 
Q 2359 409 2629 706 
Q 2900 1003 2900 1516 
L 2900 3500 
L 3475 3500 
L 3475 0 
L 2900 0 
L 2900 538 
Q 2691 219 2414 64 
Q 2138 -91 1772 -91 
Q 1169 -91 856 284 
Q 544 659 544 1381 
z
M 1991 3584 
L 1991 3584 
z
M 2278 4850 
L 2913 4850 
L 2913 4219 
L 2278 4219 
L 2278 4850 
z
M 1056 4850 
L 1691 4850 
L 1691 4219 
L 1056 4219 
L 1056 4850 
z
" transform="scale(0.015625)"/>
      </defs>
      <use xlink:href="#DejaVuSans-53"/>
      <use xlink:href="#DejaVuSans-fc" x="63.476562"/>
      <use xlink:href="#DejaVuSans-64" x="126.855469"/>
      <use xlink:href="#DejaVuSans-73" x="190.332031"/>
      <use xlink:href="#DejaVuSans-74" x="242.431641"/>
      <use xlink:href="#DejaVuSans-61" x="281.640625"/>
      <use xlink:href="#DejaVuSans-64" x="342.919922"/>
      <use xlink:href="#DejaVuSans-74" x="406.396484"/>
     </g>
    </g>
    <g id="line2d_52">
     <path d="M 408.65875 212.906 
L 418.65875 212.906 
L 428.65875 212.906 
" style="fill: none; stroke: #8eba42; stroke-width: 1.5; stroke-linecap: square"/>
    </g>
    <g id="text_27">
     <!-- Weststadt -->
     <g transform="translate(436.65875 216.406) scale(0.1 -0.1)">
      <defs>
       <path id="DejaVuSans-57" d="M 213 4666 
L 850 4666 
L 1831 722 
L 2809 4666 
L 3519 4666 
L 4500 722 
L 5478 4666 
L 6119 4666 
L 4947 0 
L 4153 0 
L 3169 4050 
L 2175 0 
L 1381 0 
L 213 4666 
z
" transform="scale(0.015625)"/>
      </defs>
      <use xlink:href="#DejaVuSans-57"/>
      <use xlink:href="#DejaVuSans-65" x="93.001953"/>
      <use xlink:href="#DejaVuSans-73" x="154.525391"/>
      <use xlink:href="#DejaVuSans-74" x="206.625"/>
      <use xlink:href="#DejaVuSans-73" x="245.833984"/>
      <use xlink:href="#DejaVuSans-74" x="297.933594"/>
      <use xlink:href="#DejaVuSans-61" x="337.142578"/>
      <use xlink:href="#DejaVuSans-64" x="398.421875"/>
      <use xlink:href="#DejaVuSans-74" x="461.898438"/>
     </g>
    </g>
    <g id="line2d_53">
     <path d="M 408.65875 227.584125 
L 418.65875 227.584125 
L 428.65875 227.584125 
" style="fill: none; stroke: #ffb5b8; stroke-width: 1.5; stroke-linecap: square"/>
    </g>
    <g id="text_28">
     <!-- Wieblingen -->
     <g transform="translate(436.65875 231.084125) scale(0.1 -0.1)">
      <use xlink:href="#DejaVuSans-57"/>
      <use xlink:href="#DejaVuSans-69" x="96.626953"/>
      <use xlink:href="#DejaVuSans-65" x="124.410156"/>
      <use xlink:href="#DejaVuSans-62" x="185.933594"/>
      <use xlink:href="#DejaVuSans-6c" x="249.410156"/>
      <use xlink:href="#DejaVuSans-69" x="277.193359"/>
      <use xlink:href="#DejaVuSans-6e" x="304.976562"/>
      <use xlink:href="#DejaVuSans-67" x="368.355469"/>
      <use xlink:href="#DejaVuSans-65" x="431.832031"/>
      <use xlink:href="#DejaVuSans-6e" x="493.355469"/>
     </g>
    </g>
    <g id="line2d_54">
     <path d="M 408.65875 242.26225 
L 418.65875 242.26225 
L 428.65875 242.26225 
" style="fill: none; stroke: #e24a33; stroke-width: 1.5; stroke-linecap: square"/>
    </g>
    <g id="text_29">
     <!-- Ziegelhausen -->
     <g transform="translate(436.65875 245.76225) scale(0.1 -0.1)">
      <defs>
       <path id="DejaVuSans-5a" d="M 359 4666 
L 4025 4666 
L 4025 4184 
L 1075 531 
L 4097 531 
L 4097 0 
L 288 0 
L 288 481 
L 3238 4134 
L 359 4134 
L 359 4666 
z
" transform="scale(0.015625)"/>
      </defs>
      <use xlink:href="#DejaVuSans-5a"/>
      <use xlink:href="#DejaVuSans-69" x="68.505859"/>
      <use xlink:href="#DejaVuSans-65" x="96.289062"/>
      <use xlink:href="#DejaVuSans-67" x="157.8125"/>
      <use xlink:href="#DejaVuSans-65" x="221.289062"/>
      <use xlink:href="#DejaVuSans-6c" x="282.8125"/>
      <use xlink:href="#DejaVuSans-68" x="310.595703"/>
      <use xlink:href="#DejaVuSans-61" x="373.974609"/>
      <use xlink:href="#DejaVuSans-75" x="435.253906"/>
      <use xlink:href="#DejaVuSans-73" x="498.632812"/>
      <use xlink:href="#DejaVuSans-65" x="550.732422"/>
      <use xlink:href="#DejaVuSans-6e" x="612.255859"/>
     </g>
    </g>
   </g>
  </g>
 </g>
 <defs>
  <clipPath id="p0cbced1276">
   <rect x="42.53875" y="7.2" width="357.12" height="266.112"/>
  </clipPath>
 </defs>
</svg>
